<svg xml:space="preserve" width="765.44" height="388.16" xmlns="http://www.w3.org/2000/svg"><defs><clipPath clipPathUnits="userSpaceOnUse" id="a"><path d="M0 0h2391.666v1210.819H0Z" clip-rule="evenodd"/></clipPath><clipPath clipPathUnits="userSpaceOnUse" id="b"><path d="M0 0h2391.666v1207.822H0Z" clip-rule="evenodd"/></clipPath></defs><g clip-path="url(#a)" transform="scale(.32)"><path d="M0 0h798v404H0Z" style="fill:#fff;fill-opacity:1;fill-rule:nonzero;stroke:none" transform="scale(2.99708)"/></g><g clip-path="url(#b)" transform="scale(.32)"><path d="M66 21v20-10 13.63" style="fill:none;stroke:#000;stroke-width:1;stroke-linecap:butt;stroke-linejoin:miter;stroke-miterlimit:10;stroke-dasharray:none;stroke-opacity:1" transform="translate(1.499 1.499) scale(2.99708)"/><path d="m66 49.88-3.5-7 3.5 1.75 3.5-1.75z" style="fill:#000;fill-opacity:1;fill-rule:nonzero;stroke:none" transform="translate(1.499 1.499) scale(2.99708)"/><path d="m66 49.88-3.5-7 3.5 1.75 3.5-1.75z" style="fill:none;stroke:#000;stroke-width:1;stroke-linecap:butt;stroke-linejoin:miter;stroke-miterlimit:10;stroke-dasharray:none;stroke-opacity:1" transform="translate(1.499 1.499) scale(2.99708)"/><path d="M49 1h34a2.994 2.994 0 0 1 2.771 1.852c.153.367.229.75.229 1.148v14c0 .398-.076.78-.228 1.148a2.972 2.972 0 0 1-.65.973 2.972 2.972 0 0 1-.974.65c-.368.153-.75.229-1.148.229H49c-.398 0-.78-.076-1.148-.228a2.971 2.971 0 0 1-.973-.65 2.971 2.971 0 0 1-.65-.974A2.971 2.971 0 0 1 46 18V4a2.994 2.994 0 0 1 1.852-2.771C48.219 1.075 48.602 1 49 1Z" style="fill:#dae8fc;fill-opacity:1;fill-rule:nonzero;stroke:none" transform="translate(1.499 1.499) scale(2.99708)"/><path d="M49 1h34a2.994 2.994 0 0 1 2.771 1.852c.153.367.229.75.229 1.148v14c0 .398-.076.78-.228 1.148a2.972 2.972 0 0 1-.65.973 2.972 2.972 0 0 1-.974.65c-.368.153-.75.229-1.148.229H49c-.398 0-.78-.076-1.148-.228a2.971 2.971 0 0 1-.973-.65 2.971 2.971 0 0 1-.65-.974A2.971 2.971 0 0 1 46 18V4a2.994 2.994 0 0 1 1.852-2.771C48.219 1.075 48.602 1 49 1Z" style="fill:none;stroke:#6c8ebf;stroke-width:1;stroke-linecap:butt;stroke-linejoin:miter;stroke-miterlimit:10;stroke-dasharray:none;stroke-opacity:1" transform="translate(1.499 1.499) scale(2.99708)"/><text transform="translate(163.153 44.956) scale(2.99708)" style="font-variant:normal;font-weight:400;font-size:12px;font-family:Arimo;-inkscape-font-specification:Arimo;writing-mode:lr-tb;fill:#000;fill-opacity:1;fill-rule:nonzero;stroke:none"><tspan x="0 7.1132812 14.443359" y="0">ATD</tspan></text><path d="M231 21v20-10 13.63" style="fill:none;stroke:#000;stroke-width:1;stroke-linecap:butt;stroke-linejoin:miter;stroke-miterlimit:10;stroke-dasharray:none;stroke-opacity:1" transform="translate(1.499 1.499) scale(2.99708)"/><path d="m231 49.88-3.5-7 3.5 1.75 3.5-1.75z" style="fill:#000;fill-opacity:1;fill-rule:nonzero;stroke:none" transform="translate(1.499 1.499) scale(2.99708)"/><path d="m231 49.88-3.5-7 3.5 1.75 3.5-1.75z" style="fill:none;stroke:#000;stroke-width:1;stroke-linecap:butt;stroke-linejoin:miter;stroke-miterlimit:10;stroke-dasharray:none;stroke-opacity:1" transform="translate(1.499 1.499) scale(2.99708)"/><path d="M214 1h34a2.994 2.994 0 0 1 2.771 1.852c.153.367.229.75.229 1.148v14c0 .398-.076.78-.228 1.148a2.972 2.972 0 0 1-.65.973 2.972 2.972 0 0 1-.974.65c-.368.153-.75.229-1.148.229h-34c-.398 0-.78-.076-1.148-.228a2.971 2.971 0 0 1-.973-.65 2.971 2.971 0 0 1-.65-.974A2.971 2.971 0 0 1 211 18V4a2.994 2.994 0 0 1 1.852-2.771c.367-.153.75-.229 1.148-.229Z" style="fill:#dae8fc;fill-opacity:1;fill-rule:nonzero;stroke:none" transform="translate(1.499 1.499) scale(2.99708)"/><path d="M214 1h34a2.994 2.994 0 0 1 2.771 1.852c.153.367.229.75.229 1.148v14c0 .398-.076.78-.228 1.148a2.972 2.972 0 0 1-.65.973 2.972 2.972 0 0 1-.974.65c-.368.153-.75.229-1.148.229h-34c-.398 0-.78-.076-1.148-.228a2.971 2.971 0 0 1-.973-.65 2.971 2.971 0 0 1-.65-.974A2.971 2.971 0 0 1 211 18V4a2.994 2.994 0 0 1 1.852-2.771c.367-.153.75-.229 1.148-.229Z" style="fill:none;stroke:#6c8ebf;stroke-width:1;stroke-linecap:butt;stroke-linejoin:miter;stroke-miterlimit:10;stroke-dasharray:none;stroke-opacity:1" transform="translate(1.499 1.499) scale(2.99708)"/><text transform="translate(648.68 44.956) scale(2.99708)" style="font-variant:normal;font-weight:400;font-size:12px;font-family:Arimo;-inkscape-font-specification:Arimo;writing-mode:lr-tb;fill:#000;fill-opacity:1;fill-rule:nonzero;stroke:none"><tspan x="0 7.1132812 14.443359 22.447266" y="0">ATK1</tspan></text><path d="M384 21v20-10 13.63" style="fill:none;stroke:#000;stroke-width:1;stroke-linecap:butt;stroke-linejoin:miter;stroke-miterlimit:10;stroke-dasharray:none;stroke-opacity:1" transform="translate(1.499 1.499) scale(2.99708)"/><path d="m384 49.88-3.5-7 3.5 1.75 3.5-1.75z" style="fill:#000;fill-opacity:1;fill-rule:nonzero;stroke:none" transform="translate(1.499 1.499) scale(2.99708)"/><path d="m384 49.88-3.5-7 3.5 1.75 3.5-1.75z" style="fill:none;stroke:#000;stroke-width:1;stroke-linecap:butt;stroke-linejoin:miter;stroke-miterlimit:10;stroke-dasharray:none;stroke-opacity:1" transform="translate(1.499 1.499) scale(2.99708)"/><path d="M367 1h34a2.994 2.994 0 0 1 2.771 1.852c.153.367.229.75.229 1.148v14c0 .398-.076.78-.228 1.148a2.972 2.972 0 0 1-.65.973 2.972 2.972 0 0 1-.974.65c-.368.153-.75.229-1.148.229h-34c-.398 0-.78-.076-1.148-.228a2.97 2.97 0 0 1-.973-.65 2.972 2.972 0 0 1-.65-.974A2.97 2.97 0 0 1 364 18V4a2.994 2.994 0 0 1 .878-2.121 2.97 2.97 0 0 1 .974-.65c.367-.153.75-.229 1.148-.229Z" style="fill:#dae8fc;fill-opacity:1;fill-rule:nonzero;stroke:none" transform="translate(1.499 1.499) scale(2.99708)"/><path d="M367 1h34a2.994 2.994 0 0 1 2.771 1.852c.153.367.229.75.229 1.148v14c0 .398-.076.78-.228 1.148a2.972 2.972 0 0 1-.65.973 2.972 2.972 0 0 1-.974.65c-.368.153-.75.229-1.148.229h-34c-.398 0-.78-.076-1.148-.228a2.97 2.97 0 0 1-.973-.65 2.972 2.972 0 0 1-.65-.974A2.97 2.97 0 0 1 364 18V4a2.994 2.994 0 0 1 .878-2.121 2.97 2.97 0 0 1 .974-.65c.367-.153.75-.229 1.148-.229Z" style="fill:none;stroke:#6c8ebf;stroke-width:1;stroke-linecap:butt;stroke-linejoin:miter;stroke-miterlimit:10;stroke-dasharray:none;stroke-opacity:1" transform="translate(1.499 1.499) scale(2.99708)"/><text transform="translate(1107.232 44.956) scale(2.99708)" style="font-variant:normal;font-weight:400;font-size:12px;font-family:Arimo;-inkscape-font-specification:Arimo;writing-mode:lr-tb;fill:#000;fill-opacity:1;fill-rule:nonzero;stroke:none"><tspan x="0 7.1132812 14.443359 22.447266" y="0">ATK2</tspan></text><path d="M66 101v20-10 13.63" style="fill:none;stroke:#000;stroke-width:1;stroke-linecap:butt;stroke-linejoin:miter;stroke-miterlimit:10;stroke-dasharray:none;stroke-opacity:1" transform="translate(1.499 1.499) scale(2.99708)"/><path d="m66 129.88-3.5-7 3.5 1.75 3.5-1.75z" style="fill:#000;fill-opacity:1;fill-rule:nonzero;stroke:none" transform="translate(1.499 1.499) scale(2.99708)"/><path d="m66 129.88-3.5-7 3.5 1.75 3.5-1.75z" style="fill:none;stroke:#000;stroke-width:1;stroke-linecap:butt;stroke-linejoin:miter;stroke-miterlimit:10;stroke-dasharray:none;stroke-opacity:1" transform="translate(1.499 1.499) scale(2.99708)"/><path d="M1 51h130v50H1Z" style="fill:#fff;fill-opacity:1;fill-rule:nonzero;stroke:none" transform="translate(1.499 1.499) scale(2.99708)"/><path d="M1 51h130v50H1Z" style="fill:none;stroke:#000;stroke-width:1;stroke-linecap:butt;stroke-linejoin:miter;stroke-miterlimit:10;stroke-dasharray:none;stroke-opacity:1" transform="translate(1.499 1.499) scale(2.99708)"/><text transform="translate(92.863 218.787) scale(2.99708)" style="font-variant:normal;font-weight:400;font-size:12px;font-family:Arimo;-inkscape-font-specification:Arimo;writing-mode:lr-tb;fill:#000;fill-opacity:1;fill-rule:nonzero;stroke:none"><tspan x="0 8.6660156 15.339844 21.339844 25.335938 31.335938 38.009766 41.34375 44.677734 53.34375 61.347656" y="0">Decrypt CBC</tspan></text><text transform="translate(26.88 263.743) scale(2.99708)" style="font-variant:normal;font-weight:400;font-size:12px;font-family:Arimo;-inkscape-font-specification:Arimo;writing-mode:lr-tb;fill:#000;fill-opacity:1;fill-rule:nonzero;stroke:none"><tspan x="0 3.9960938 12 20.003906 28.007812 34.681641 41.355469 48.029297 51.363281 60.029297 68.695312 75.369141 78.703125 85.376953 94.042969 102.04688 110.05078" y="0">(AES256/RC2/3DES)</tspan></text><path d="M231 101v20-10 13.63" style="fill:none;stroke:#000;stroke-width:1;stroke-linecap:butt;stroke-linejoin:miter;stroke-miterlimit:10;stroke-dasharray:none;stroke-opacity:1" transform="translate(1.499 1.499) scale(2.99708)"/><path d="m231 129.88-3.5-7 3.5 1.75 3.5-1.75z" style="fill:#000;fill-opacity:1;fill-rule:nonzero;stroke:none" transform="translate(1.499 1.499) scale(2.99708)"/><path d="m231 129.88-3.5-7 3.5 1.75 3.5-1.75z" style="fill:none;stroke:#000;stroke-width:1;stroke-linecap:butt;stroke-linejoin:miter;stroke-miterlimit:10;stroke-dasharray:none;stroke-opacity:1" transform="translate(1.499 1.499) scale(2.99708)"/><path d="M166 51h130v50H166Z" style="fill:#fff;fill-opacity:1;fill-rule:nonzero;stroke:none" transform="translate(1.499 1.499) scale(2.99708)"/><path d="M166 51h130v50H166Z" style="fill:none;stroke:#000;stroke-width:1;stroke-linecap:butt;stroke-linejoin:miter;stroke-miterlimit:10;stroke-dasharray:none;stroke-opacity:1" transform="translate(1.499 1.499) scale(2.99708)"/><text transform="translate(587.38 218.787) scale(2.99708)" style="font-variant:normal;font-weight:400;font-size:12px;font-family:Arimo;-inkscape-font-specification:Arimo;writing-mode:lr-tb;fill:#000;fill-opacity:1;fill-rule:nonzero;stroke:none"><tspan x="0 8.6660156 15.339844 21.339844 25.335938 31.335938 38.009766 41.34375 44.677734 53.34375 61.347656" y="0">Decrypt CBC</tspan></text><text transform="translate(521.398 263.743) scale(2.99708)" style="font-variant:normal;font-weight:400;font-size:12px;font-family:Arimo;-inkscape-font-specification:Arimo;writing-mode:lr-tb;fill:#000;fill-opacity:1;fill-rule:nonzero;stroke:none"><tspan x="0 3.9960938 12 20.003906 28.007812 34.681641 41.355469 48.029297 51.363281 60.029297 68.695312 75.369141 78.703125 85.376953 94.042969 102.04688 110.05078" y="0">(AES256/RC2/3DES)</tspan></text><path d="M384 101v20l-.18 3.64" style="fill:none;stroke:#000;stroke-width:1;stroke-linecap:butt;stroke-linejoin:miter;stroke-miterlimit:10;stroke-dasharray:none;stroke-opacity:1" transform="translate(1.499 1.499) scale(2.99708)"/><path d="m383.56 129.88-3.15-7.16 3.41 1.92 3.58-1.57z" style="fill:#000;fill-opacity:1;fill-rule:nonzero;stroke:none" transform="translate(1.499 1.499) scale(2.99708)"/><path d="m383.56 129.88-3.15-7.16 3.41 1.92 3.58-1.57z" style="fill:none;stroke:#000;stroke-width:1;stroke-linecap:butt;stroke-linejoin:miter;stroke-miterlimit:10;stroke-dasharray:none;stroke-opacity:1" transform="translate(1.499 1.499) scale(2.99708)"/><path d="M319 51h130v50H319Z" style="fill:#fff;fill-opacity:1;fill-rule:nonzero;stroke:none" transform="translate(1.499 1.499) scale(2.99708)"/><path d="M319 51h130v50H319Z" style="fill:none;stroke:#000;stroke-width:1;stroke-linecap:butt;stroke-linejoin:miter;stroke-miterlimit:10;stroke-dasharray:none;stroke-opacity:1" transform="translate(1.499 1.499) scale(2.99708)"/><text transform="translate(1045.933 218.787) scale(2.99708)" style="font-variant:normal;font-weight:400;font-size:12px;font-family:Arimo;-inkscape-font-specification:Arimo;writing-mode:lr-tb;fill:#000;fill-opacity:1;fill-rule:nonzero;stroke:none"><tspan x="0 8.6660156 15.339844 21.339844 25.335938 31.335938 38.009766 41.34375 44.677734 53.34375 61.347656" y="0">Decrypt CBC</tspan></text><text transform="translate(979.95 263.743) scale(2.99708)" style="font-variant:normal;font-weight:400;font-size:12px;font-family:Arimo;-inkscape-font-specification:Arimo;writing-mode:lr-tb;fill:#000;fill-opacity:1;fill-rule:nonzero;stroke:none"><tspan x="0 3.9960938 12 20.003906 28.007812 34.681641 41.355469 48.029297 51.363281 60.029297 68.695312 75.369141 78.703125 85.376953 94.042969 102.04688 110.05078" y="0">(AES256/RC2/3DES)</tspan></text><path d="M66 151v20l-.18 3.64" style="fill:none;stroke:#000;stroke-width:1;stroke-linecap:butt;stroke-linejoin:miter;stroke-miterlimit:10;stroke-dasharray:none;stroke-opacity:1" transform="translate(1.499 1.499) scale(2.99708)"/><path d="m65.56 179.88-3.15-7.16 3.41 1.92 3.58-1.57z" style="fill:#000;fill-opacity:1;fill-rule:nonzero;stroke:none" transform="translate(1.499 1.499) scale(2.99708)"/><path d="m65.56 179.88-3.15-7.16 3.41 1.92 3.58-1.57z" style="fill:none;stroke:#000;stroke-width:1;stroke-linecap:butt;stroke-linejoin:miter;stroke-miterlimit:10;stroke-dasharray:none;stroke-opacity:1" transform="translate(1.499 1.499) scale(2.99708)"/><path d="M23.5 131h85v20h-85z" style="fill:#eee;fill-opacity:1;fill-rule:nonzero;stroke:none" transform="translate(1.499 1.499) scale(2.99708)"/><path d="M23.5 131h85v20h-85z" style="fill:none;stroke:#36393d;stroke-width:1;stroke-linecap:butt;stroke-linejoin:miter;stroke-miterlimit:10;stroke-dasharray:none;stroke-opacity:1" transform="translate(1.499 1.499) scale(2.99708)"/><text transform="translate(132.34 434.576) scale(2.99708)" style="font-variant:normal;font-weight:400;font-size:12px;font-family:Arimo;-inkscape-font-specification:Arimo;writing-mode:lr-tb;fill:#000;fill-opacity:1;fill-rule:nonzero;stroke:none"><tspan x="0 9.3339844 16.664062 19.330078 26.003906 29.337891 32.671875 35.337891 38.003906" y="0">GZip file</tspan></text><path d="M65.5 215v43.63" style="fill:none;stroke:#000;stroke-width:1;stroke-linecap:butt;stroke-linejoin:miter;stroke-miterlimit:10;stroke-dasharray:none;stroke-opacity:1" transform="translate(1.499 1.499) scale(2.99708)"/><path d="m65.5 263.88-3.5-7 3.5 1.75 3.5-1.75z" style="fill:#000;fill-opacity:1;fill-rule:nonzero;stroke:none" transform="translate(1.499 1.499) scale(2.99708)"/><path d="m65.5 263.88-3.5-7 3.5 1.75 3.5-1.75zM231 151v20l-.18 3.64" style="fill:none;stroke:#000;stroke-width:1;stroke-linecap:butt;stroke-linejoin:miter;stroke-miterlimit:10;stroke-dasharray:none;stroke-opacity:1" transform="translate(1.499 1.499) scale(2.99708)"/><path d="m230.56 179.88-3.15-7.16 3.41 1.92 3.58-1.57z" style="fill:#000;fill-opacity:1;fill-rule:nonzero;stroke:none" transform="translate(1.499 1.499) scale(2.99708)"/><path d="m230.56 179.88-3.15-7.16 3.41 1.92 3.58-1.57z" style="fill:none;stroke:#000;stroke-width:1;stroke-linecap:butt;stroke-linejoin:miter;stroke-miterlimit:10;stroke-dasharray:none;stroke-opacity:1" transform="translate(1.499 1.499) scale(2.99708)"/><path d="M188.5 131h85v20h-85z" style="fill:#eee;fill-opacity:1;fill-rule:nonzero;stroke:none" transform="translate(1.499 1.499) scale(2.99708)"/><path d="M188.5 131h85v20h-85z" style="fill:none;stroke:#36393d;stroke-width:1;stroke-linecap:butt;stroke-linejoin:miter;stroke-miterlimit:10;stroke-dasharray:none;stroke-opacity:1" transform="translate(1.499 1.499) scale(2.99708)"/><text transform="translate(626.857 434.576) scale(2.99708)" style="font-variant:normal;font-weight:400;font-size:12px;font-family:Arimo;-inkscape-font-specification:Arimo;writing-mode:lr-tb;fill:#000;fill-opacity:1;fill-rule:nonzero;stroke:none"><tspan x="0 9.3339844 16.664062 19.330078 26.003906 29.337891 32.671875 35.337891 38.003906" y="0">GZip file</tspan></text><path d="M383.5 151v107.63" style="fill:none;stroke:#000;stroke-width:1;stroke-linecap:butt;stroke-linejoin:miter;stroke-miterlimit:10;stroke-dasharray:none;stroke-opacity:1" transform="translate(1.499 1.499) scale(2.99708)"/><path d="m383.5 263.88-3.5-7 3.5 1.75 3.5-1.75z" style="fill:#000;fill-opacity:1;fill-rule:nonzero;stroke:none" transform="translate(1.499 1.499) scale(2.99708)"/><path d="m383.5 263.88-3.5-7 3.5 1.75 3.5-1.75z" style="fill:none;stroke:#000;stroke-width:1;stroke-linecap:butt;stroke-linejoin:miter;stroke-miterlimit:10;stroke-dasharray:none;stroke-opacity:1" transform="translate(1.499 1.499) scale(2.99708)"/><path d="M341 131h85v20h-85z" style="fill:#eee;fill-opacity:1;fill-rule:nonzero;stroke:none" transform="translate(1.499 1.499) scale(2.99708)"/><path d="M341 131h85v20h-85z" style="fill:none;stroke:#36393d;stroke-width:1;stroke-linecap:butt;stroke-linejoin:miter;stroke-miterlimit:10;stroke-dasharray:none;stroke-opacity:1" transform="translate(1.499 1.499) scale(2.99708)"/><text transform="translate(1082.413 434.576) scale(2.99708)" style="font-variant:normal;font-weight:400;font-size:12px;font-family:Arimo;-inkscape-font-specification:Arimo;writing-mode:lr-tb;fill:#000;fill-opacity:1;fill-rule:nonzero;stroke:none"><tspan x="0 9.3339844 16.664062 19.330078 26.003906 29.337891 32.671875 35.337891 38.003906" y="0">GZip file</tspan></text><path d="M626 265v-44H271v-23h-14.63" style="fill:none;stroke:#000;stroke-width:1;stroke-linecap:butt;stroke-linejoin:miter;stroke-miterlimit:10;stroke-dasharray:none;stroke-opacity:1" transform="translate(1.499 1.499) scale(2.99708)"/><path d="m251.12 198 7-3.5-1.75 3.5 1.75 3.5z" style="fill:#000;fill-opacity:1;fill-rule:nonzero;stroke:none" transform="translate(1.499 1.499) scale(2.99708)"/><path d="m251.12 198 7-3.5-1.75 3.5 1.75 3.5zM626 265v-44H111v-23H91.37" style="fill:none;stroke:#000;stroke-width:1;stroke-linecap:butt;stroke-linejoin:miter;stroke-miterlimit:10;stroke-dasharray:none;stroke-opacity:1" transform="translate(1.499 1.499) scale(2.99708)"/><path d="m86.12 198 7-3.5-1.75 3.5 1.75 3.5z" style="fill:#000;fill-opacity:1;fill-rule:nonzero;stroke:none" transform="translate(1.499 1.499) scale(2.99708)"/><path d="m86.12 198 7-3.5-1.75 3.5 1.75 3.5zM571 295h-61V76h-54.63" style="fill:none;stroke:#000;stroke-width:1;stroke-linecap:butt;stroke-linejoin:miter;stroke-miterlimit:10;stroke-dasharray:none;stroke-opacity:1" transform="translate(1.499 1.499) scale(2.99708)"/><path d="m450.12 76 7-3.5-1.75 3.5 1.75 3.5z" style="fill:#000;fill-opacity:1;fill-rule:nonzero;stroke:none" transform="translate(1.499 1.499) scale(2.99708)"/><path d="m450.12 76 7-3.5-1.75 3.5 1.75 3.5z" style="fill:none;stroke:#000;stroke-width:1;stroke-linecap:butt;stroke-linejoin:miter;stroke-miterlimit:10;stroke-dasharray:none;stroke-opacity:1" transform="translate(1.499 1.499) scale(2.99708)"/><path d="M580 265h102a8.984 8.984 0 0 1 5 1.517 8.983 8.983 0 0 1 3.315 4.039A8.98 8.98 0 0 1 691 274v42a8.98 8.98 0 0 1-1.517 5 8.978 8.978 0 0 1-4.039 3.315A8.977 8.977 0 0 1 682 325H580a8.982 8.982 0 0 1-5-1.517 8.973 8.973 0 0 1-2.483-2.483 8.978 8.978 0 0 1-1.344-3.244A8.973 8.973 0 0 1 571 316v-42a8.977 8.977 0 0 1 1.517-5 8.974 8.974 0 0 1 2.483-2.483 8.979 8.979 0 0 1 5-1.517Z" style="fill:#ff8;fill-opacity:1;fill-rule:nonzero;stroke:none" transform="translate(1.499 1.499) scale(2.99708)"/><path d="M580 265h102a8.984 8.984 0 0 1 5 1.517 8.983 8.983 0 0 1 3.315 4.039A8.98 8.98 0 0 1 691 274v42a8.98 8.98 0 0 1-1.517 5 8.978 8.978 0 0 1-4.039 3.315A8.977 8.977 0 0 1 682 325H580a8.982 8.982 0 0 1-5-1.517 8.973 8.973 0 0 1-2.483-2.483 8.978 8.978 0 0 1-1.344-3.244A8.973 8.973 0 0 1 571 316v-42a8.977 8.977 0 0 1 1.517-5 8.974 8.974 0 0 1 2.483-2.483 8.979 8.979 0 0 1 5-1.517Z" style="fill:none;stroke:#36393d;stroke-width:1;stroke-linecap:butt;stroke-linejoin:miter;stroke-miterlimit:10;stroke-dasharray:none;stroke-opacity:1" transform="translate(1.499 1.499) scale(2.99708)"/><text transform="translate(1805.223 854.167) scale(2.99708)" style="font-variant:normal;font-weight:400;font-size:12px;font-family:Arimo;-inkscape-font-specification:Arimo;writing-mode:lr-tb;fill:#000;fill-opacity:1;fill-rule:nonzero;stroke:none"><tspan x="0 8.0039062 14.677734 20.677734" y="0">Keys</tspan></text><text transform="translate(1885.16 854.167) scale(2.99708)" style="font-variant:normal;font-weight:400;font-size:12px;font-family:Arimo;-inkscape-font-specification:Arimo;writing-mode:lr-tb;fill:#000;fill-opacity:1;fill-rule:nonzero;stroke:none"><tspan x="0 3.3339844 7.3300781 14.003906 20.677734" y="0">tream</tspan></text><text transform="translate(1757.176 896.126) scale(2.99708)" style="font-variant:normal;font-weight:400;font-size:12px;font-family:Arimo;-inkscape-font-specification:Arimo;writing-mode:lr-tb;fill:#000;fill-opacity:1;fill-rule:nonzero;stroke:none"><tspan x="0 8.0039062 10.669922 16.669922 23.34375 26.677734 33.351562 40.025391 46.699219 53.373047 60.046875 66.720703 72.720703 76.054688 82.728516" y="0">Size depends on</tspan></text><text transform="translate(1738.21 941.082) scale(2.99708)" style="font-variant:normal;font-weight:400;font-size:12px;font-family:Arimo;-inkscape-font-specification:Arimo;writing-mode:lr-tb;fill:#000;fill-opacity:1;fill-rule:nonzero;stroke:none"><tspan x="0 2.6660156 9.3398438 16.013672 22.6875 26.021484 32.695312 36.029297 42.703125 46.037109 49.371094 57.375 64.048828 70.048828 76.048828 84.714844 91.388672 95.384766" y="0">length of Password</tspan></text><path d="M65.5 181 85 198l-19.5 17L46 198Z" style="fill:#fff;fill-opacity:1;fill-rule:nonzero;stroke:none" transform="translate(1.499 1.499) scale(2.99708)"/><path d="M65.5 181 85 198l-19.5 17L46 198Z" style="fill:none;stroke:#000;stroke-width:1;stroke-linecap:butt;stroke-linejoin:miter;stroke-miterlimit:10;stroke-dasharray:none;stroke-opacity:1" transform="translate(1.499 1.499) scale(2.99708)"/><text transform="translate(157.3 605.41) scale(2.99708)" style="font-variant:normal;font-weight:400;font-size:12px;font-family:Arimo;-inkscape-font-specification:Arimo;writing-mode:lr-tb;fill:#000;fill-opacity:1;fill-rule:nonzero;stroke:none"><tspan x="0 8.0039062 17.337891" y="0">XOR</tspan></text><path d="M230.5 215v30l.39 23.63" style="fill:none;stroke:#000;stroke-width:1;stroke-linecap:butt;stroke-linejoin:miter;stroke-miterlimit:10;stroke-dasharray:none;stroke-opacity:1" transform="translate(1.499 1.499) scale(2.99708)"/><path d="m230.98 273.88-3.61-6.94 3.52 1.69 3.47-1.81z" style="fill:#000;fill-opacity:1;fill-rule:nonzero;stroke:none" transform="translate(1.499 1.499) scale(2.99708)"/><path d="m230.98 273.88-3.61-6.94 3.52 1.69 3.47-1.81z" style="fill:none;stroke:#000;stroke-width:1;stroke-linecap:butt;stroke-linejoin:miter;stroke-miterlimit:10;stroke-dasharray:none;stroke-opacity:1" transform="translate(1.499 1.499) scale(2.99708)"/><path d="m230.5 181 19.5 17-19.5 17-19.5-17Z" style="fill:#fff;fill-opacity:1;fill-rule:nonzero;stroke:none" transform="translate(1.499 1.499) scale(2.99708)"/><path d="m230.5 181 19.5 17-19.5 17-19.5-17Z" style="fill:none;stroke:#000;stroke-width:1;stroke-linecap:butt;stroke-linejoin:miter;stroke-miterlimit:10;stroke-dasharray:none;stroke-opacity:1" transform="translate(1.499 1.499) scale(2.99708)"/><text transform="translate(651.817 605.41) scale(2.99708)" style="font-variant:normal;font-weight:400;font-size:12px;font-family:Arimo;-inkscape-font-specification:Arimo;writing-mode:lr-tb;fill:#000;fill-opacity:1;fill-rule:nonzero;stroke:none"><tspan x="0 8.0039062 17.337891" y="0">XOR</tspan></text><text transform="translate(1537.5 374.634) scale(2.99708)" style="font-variant:normal;font-weight:400;font-size:12px;font-family:Arimo;-inkscape-font-specification:Arimo;writing-mode:lr-tb;fill:#000;fill-opacity:1;fill-rule:nonzero;stroke:none"><tspan x="0 7.3300781 9.9960938 13.992188 19.992188 23.326172 26.660156 33.333984 39.333984 42.667969 49.341797 55.341797 58.675781 65.349609 71.349609 78.023438 84.697266 88.03125 94.705078 100.70508 104.03906 107.37305" y="0">First bytes used as IV</tspan></text><path d="M683.5 1h105a7.481 7.481 0 0 1 4.167 1.264 7.48 7.48 0 0 1 2.762 3.366A7.49 7.49 0 0 1 796 8.5v35a7.475 7.475 0 0 1-.571 2.87 7.486 7.486 0 0 1-2.762 3.366A7.483 7.483 0 0 1 788.5 51h-105a7.482 7.482 0 0 1-4.167-1.264 7.48 7.48 0 0 1-2.762-3.366A7.475 7.475 0 0 1 676 43.5v-35a7.48 7.48 0 0 1 1.264-4.167 7.484 7.484 0 0 1 3.366-2.762A7.483 7.483 0 0 1 683.5 1Z" style="fill:#ff8;fill-opacity:1;fill-rule:nonzero;stroke:none" transform="translate(1.499 1.499) scale(2.99708)"/><path d="M683.5 1h105a7.481 7.481 0 0 1 4.167 1.264 7.48 7.48 0 0 1 2.762 3.366A7.49 7.49 0 0 1 796 8.5v35a7.475 7.475 0 0 1-.571 2.87 7.486 7.486 0 0 1-2.762 3.366A7.483 7.483 0 0 1 788.5 51h-105a7.482 7.482 0 0 1-4.167-1.264 7.48 7.48 0 0 1-2.762-3.366A7.475 7.475 0 0 1 676 43.5v-35a7.48 7.48 0 0 1 1.264-4.167 7.484 7.484 0 0 1 3.366-2.762A7.483 7.483 0 0 1 683.5 1Z" style="fill:none;stroke:#36393d;stroke-width:1;stroke-linecap:butt;stroke-linejoin:miter;stroke-miterlimit:10;stroke-dasharray:none;stroke-opacity:1" transform="translate(1.499 1.499) scale(2.99708)"/><text transform="translate(2076.88 47.953) scale(2.99708)" style="font-variant:normal;font-weight:400;font-size:12px;font-family:Arimo;-inkscape-font-specification:Arimo;writing-mode:lr-tb;fill:#000;fill-opacity:1;fill-rule:nonzero;stroke:none"><tspan x="0 8.6660156 14.666016 21.339844 25.335938 29.332031 36.005859 42.679688 49.353516 56.027344 62.701172 69.375 76.048828 82.722656" y="0">User-dependant</tspan></text><text transform="translate(2088.915 89.912) scale(2.99708)" style="font-variant:normal;font-weight:400;font-size:12px;font-family:Arimo;-inkscape-font-specification:Arimo;writing-mode:lr-tb;fill:#000;fill-opacity:1;fill-rule:nonzero;stroke:none"><tspan x="0 3.9960938 10.669922 17.34375 23.34375 30.017578 36.691406 45.357422 52.03125 56.027344 59.361328 65.361328 72.035156" y="0">(unknown) key</tspan></text><text transform="translate(2141.879 134.868) scale(2.99708)" style="font-variant:normal;font-weight:400;font-size:12px;font-family:Arimo;-inkscape-font-specification:Arimo;writing-mode:lr-tb;fill:#000;fill-opacity:1;fill-rule:nonzero;stroke:none"><tspan x="0 9.9960938 16.669922 20.003906 26.677734 30.673828 33.339844 40.013672" y="0">material</tspan></text><path d="M680.5 61h111c.597 0 1.17.114 1.722.343a4.458 4.458 0 0 1 1.46.975c.422.422.747.909.975 1.46.229.551.343 1.125.343 1.722v21c0 .597-.114 1.17-.343 1.722a4.458 4.458 0 0 1-.975 1.46 4.458 4.458 0 0 1-1.46.975A4.457 4.457 0 0 1 791.5 91h-111c-.597 0-1.17-.114-1.722-.343a4.457 4.457 0 0 1-1.46-.975 4.457 4.457 0 0 1-.976-1.46A4.455 4.455 0 0 1 676 86.5v-21c0-.597.114-1.17.342-1.722a4.457 4.457 0 0 1 .976-1.46 4.457 4.457 0 0 1 1.46-.975A4.458 4.458 0 0 1 680.5 61Z" style="fill:#dae8fc;fill-opacity:1;fill-rule:nonzero;stroke:none" transform="translate(1.499 1.499) scale(2.99708)"/><path d="M680.5 61h111c.597 0 1.17.114 1.722.343a4.458 4.458 0 0 1 1.46.975c.422.422.747.909.975 1.46.229.551.343 1.125.343 1.722v21c0 .597-.114 1.17-.343 1.722a4.458 4.458 0 0 1-.975 1.46 4.458 4.458 0 0 1-1.46.975A4.457 4.457 0 0 1 791.5 91h-111c-.597 0-1.17-.114-1.722-.343a4.457 4.457 0 0 1-1.46-.975 4.457 4.457 0 0 1-.976-1.46A4.455 4.455 0 0 1 676 86.5v-21c0-.597.114-1.17.342-1.722a4.457 4.457 0 0 1 .976-1.46 4.457 4.457 0 0 1 1.46-.975A4.458 4.458 0 0 1 680.5 61Z" style="fill:none;stroke:#6c8ebf;stroke-width:1;stroke-linecap:butt;stroke-linejoin:miter;stroke-miterlimit:10;stroke-dasharray:none;stroke-opacity:1" transform="translate(1.499 1.499) scale(2.99708)"/><text transform="translate(2128.86 239.766) scale(2.99708)" style="font-variant:normal;font-weight:400;font-size:12px;font-family:Arimo;-inkscape-font-specification:Arimo;writing-mode:lr-tb;fill:#000;fill-opacity:1;fill-rule:nonzero;stroke:none"><tspan x="0 3.3339844 10.007812 16.681641 23.355469 26.689453 30.023438 33.357422 36.023438 38.689453 45.363281" y="0">Input files</tspan></text><path d="M683.5 101h105a7.48 7.48 0 0 1 4.167 1.264 7.48 7.48 0 0 1 2.762 3.366 7.49 7.49 0 0 1 .571 2.87v35a7.474 7.474 0 0 1-.571 2.87 7.486 7.486 0 0 1-2.762 3.366A7.484 7.484 0 0 1 788.5 151h-105a7.478 7.478 0 0 1-2.87-.57 7.48 7.48 0 0 1-3.366-2.763A7.478 7.478 0 0 1 676 143.5v-35a7.48 7.48 0 0 1 1.264-4.167 7.485 7.485 0 0 1 3.366-2.762 7.484 7.484 0 0 1 2.87-.571z" style="fill:#cdeb8b;fill-opacity:1;fill-rule:nonzero;stroke:none" transform="translate(1.499 1.499) scale(2.99708)"/><path d="M683.5 101h105a7.48 7.48 0 0 1 4.167 1.264 7.48 7.48 0 0 1 2.762 3.366 7.49 7.49 0 0 1 .571 2.87v35a7.474 7.474 0 0 1-.571 2.87 7.486 7.486 0 0 1-2.762 3.366A7.484 7.484 0 0 1 788.5 151h-105a7.478 7.478 0 0 1-2.87-.57 7.48 7.48 0 0 1-3.366-2.763A7.478 7.478 0 0 1 676 143.5v-35a7.48 7.48 0 0 1 1.264-4.167 7.485 7.485 0 0 1 3.366-2.762 7.484 7.484 0 0 1 2.87-.571z" style="fill:none;stroke:#36393d;stroke-width:1;stroke-linecap:butt;stroke-linejoin:miter;stroke-miterlimit:10;stroke-dasharray:none;stroke-opacity:1" transform="translate(1.499 1.499) scale(2.99708)"/><text transform="translate(2052.903 368.64) scale(2.99708)" style="font-variant:normal;font-weight:400;font-size:12px;font-family:Arimo;-inkscape-font-specification:Arimo;writing-mode:lr-tb;fill:#000;fill-opacity:1;fill-rule:nonzero;stroke:none"><tspan x="0 8.0039062 14.677734 21.351562 30.017578 36.691406 40.025391 46.025391 52.699219 62.695312 69.369141 76.042969 79.376953 86.050781 92.724609 95.390625" y="0">Known/computable</tspan></text><text transform="translate(2108.911 413.596) scale(2.99708)" style="font-variant:normal;font-weight:400;font-size:12px;font-family:Arimo;-inkscape-font-specification:Arimo;writing-mode:lr-tb;fill:#000;fill-opacity:1;fill-rule:nonzero;stroke:none"><tspan x="0 6 12.673828 18.673828 22.007812 32.003906 38.677734 42.011719 48.685547 52.681641 55.347656 62.021484" y="0">key material</tspan></text><path d="M682 161h108a5.984 5.984 0 0 1 3.333 1.011 5.987 5.987 0 0 1 2.21 2.693A5.99 5.99 0 0 1 796 167v28a5.99 5.99 0 0 1-1.757 4.243 5.988 5.988 0 0 1-3.073 1.642A5.984 5.984 0 0 1 790 201H682a5.991 5.991 0 0 1-4.243-1.757A5.99 5.99 0 0 1 676 195v-28a5.98 5.98 0 0 1 1.011-3.333 5.989 5.989 0 0 1 2.693-2.21A5.985 5.985 0 0 1 682 161Z" style="fill:#60a917;fill-opacity:1;fill-rule:nonzero;stroke:none" transform="translate(1.499 1.499) scale(2.99708)"/><path d="M682 161h108a5.984 5.984 0 0 1 3.333 1.011 5.987 5.987 0 0 1 2.21 2.693A5.99 5.99 0 0 1 796 167v28a5.99 5.99 0 0 1-1.757 4.243 5.988 5.988 0 0 1-3.073 1.642A5.984 5.984 0 0 1 790 201H682a5.991 5.991 0 0 1-4.243-1.757A5.99 5.99 0 0 1 676 195v-28a5.98 5.98 0 0 1 1.011-3.333 5.989 5.989 0 0 1 2.693-2.21A5.985 5.985 0 0 1 682 161Z" style="fill:none;stroke:#2d7600;stroke-width:1;stroke-linecap:butt;stroke-linejoin:miter;stroke-miterlimit:10;stroke-dasharray:none;stroke-opacity:1" transform="translate(1.499 1.499) scale(2.99708)"/><text transform="translate(2056.884 554.459) scale(2.99708)" style="font-variant:normal;font-weight:400;font-size:12px;font-family:Arimo;-inkscape-font-specification:Arimo;writing-mode:lr-tb;fill:#fff;fill-opacity:1;fill-rule:nonzero;stroke:none"><tspan x="0 8.0039062 14.677734 21.351562 30.017578 36.691406 40.025391 42.691406 49.365234 52.699219 59.373047 63.369141 73.365234 80.039062 83.373047 86.039062 92.712891" y="0">Known information</tspan></text><path d="M45.5 242.5h40v85h-40z" style="fill:#fff2cc;fill-opacity:1;fill-rule:nonzero;stroke:none" transform="rotate(-90 197.807 854.168) scale(2.99708)"/><path d="M45.5 242.5h40v85h-40z" style="fill:none;stroke:#d6b656;stroke-width:1;stroke-linecap:butt;stroke-linejoin:miter;stroke-miterlimit:10;stroke-dasharray:none;stroke-opacity:1" transform="rotate(-90 197.807 854.168) scale(2.99708)"/><text transform="translate(107.333 824.196) scale(2.99708)" style="font-variant:normal;font-weight:400;font-size:12px;font-family:Arimo;-inkscape-font-specification:Arimo;writing-mode:lr-tb;fill:#000;fill-opacity:1;fill-rule:nonzero;stroke:none"><tspan x="0 8.0039062 10.669922 14.003906 17.337891 20.671875 27.345703 34.019531 40.693359 46.693359 53.367188" y="0">Bit Indexes</tspan></text><text transform="translate(81.343 866.155) scale(2.99708)" style="font-variant:normal;font-weight:400;font-size:12px;font-family:Arimo;-inkscape-font-specification:Arimo;writing-mode:lr-tb;fill:#000;fill-opacity:1;fill-rule:nonzero;stroke:none"><tspan x="0 3.9960938 10.669922 17.34375 23.34375 30.017578 36.691406 43.365234 50.039062 53.373047 60.046875 66.720703 70.054688" y="0">(encoded on 8</tspan></text><text transform="translate(162.357 911.111) scale(2.99708)" style="font-variant:normal;font-weight:400;font-size:12px;font-family:Arimo;-inkscape-font-specification:Arimo;writing-mode:lr-tb;fill:#000;fill-opacity:1;fill-rule:nonzero;stroke:none"><tspan x="0 6.6738281 9.3398438 12.673828 18.673828" y="0">bits)</tspan></text><path d="M171 275h120v20H171Z" style="fill:#fff2cc;fill-opacity:1;fill-rule:nonzero;stroke:none" transform="translate(1.499 1.499) scale(2.99708)"/><path d="M171 275h120v20H171Z" style="fill:none;stroke:#d6b656;stroke-width:1;stroke-linecap:butt;stroke-linejoin:miter;stroke-miterlimit:10;stroke-dasharray:none;stroke-opacity:1" transform="translate(1.499 1.499) scale(2.99708)"/><text transform="translate(527.392 866.155) scale(2.99708)" style="font-variant:normal;font-weight:400;font-size:12px;font-family:Arimo;-inkscape-font-specification:Arimo;writing-mode:lr-tb;fill:#000;fill-opacity:1;fill-rule:nonzero;stroke:none"><tspan x="0 8.0039062 10.669922 17.34375 24.017578 30.691406 36.691406 43.365234 49.365234 52.699219 56.695312 63.369141 66.035156 69.369141 75.369141 78.703125 82.699219 89.373047 96.046875 106.04297" y="0">AlphaTav (bitstream)</tspan></text><path d="M323.5 265h120v40h-120z" style="fill:#fff2cc;fill-opacity:1;fill-rule:nonzero;stroke:none" transform="translate(1.499 1.499) scale(2.99708)"/><path d="M323.5 265h120v40h-120z" style="fill:none;stroke:#d6b656;stroke-width:1;stroke-linecap:butt;stroke-linejoin:miter;stroke-miterlimit:10;stroke-dasharray:none;stroke-opacity:1" transform="translate(1.499 1.499) scale(2.99708)"/><text transform="translate(1016.945 845.175) scale(2.99708)" style="font-variant:normal;font-weight:400;font-size:12px;font-family:Arimo;-inkscape-font-specification:Arimo;writing-mode:lr-tb;fill:#000;fill-opacity:1;fill-rule:nonzero;stroke:none"><tspan x="0 8.0039062 10.669922 17.34375 23.34375 29.34375 32.677734 40.681641 43.347656 49.347656 56.021484 62.021484 65.355469 69.351562 76.025391 82.699219" y="0">Block Sizes (one</tspan></text><text transform="translate(1052.957 890.132) scale(2.99708)" style="font-variant:normal;font-weight:400;font-size:12px;font-family:Arimo;-inkscape-font-specification:Arimo;writing-mode:lr-tb;fill:#000;fill-opacity:1;fill-rule:nonzero;stroke:none"><tspan x="0 6.6738281 12.673828 19.347656 23.34375 29.34375 32.677734 39.351562 42.685547 49.359375 52.025391 55.359375 61.359375" y="0">every 4 bits)</tspan></text><path d="M404 371h20-16 13.63" style="fill:none;stroke:#000;stroke-width:1;stroke-linecap:butt;stroke-linejoin:miter;stroke-miterlimit:10;stroke-dasharray:none;stroke-opacity:1" transform="translate(1.499 1.499) scale(2.99708)"/><path d="m426.88 371-7 3.5 1.75-3.5-1.75-3.5z" style="fill:#000;fill-opacity:1;fill-rule:nonzero;stroke:none" transform="translate(1.499 1.499) scale(2.99708)"/><path d="m426.88 371-7 3.5 1.75-3.5-1.75-3.5z" style="fill:none;stroke:#000;stroke-width:1;stroke-linecap:butt;stroke-linejoin:miter;stroke-miterlimit:10;stroke-dasharray:none;stroke-opacity:1" transform="translate(1.499 1.499) scale(2.99708)"/><path d="M318.5 356h81c.597 0 1.17.114 1.722.343a4.457 4.457 0 0 1 1.46.975c.422.422.747.909.975 1.46.229.551.343 1.125.343 1.722v21c0 .597-.114 1.17-.343 1.722a4.458 4.458 0 0 1-.975 1.46 4.458 4.458 0 0 1-1.46.975 4.457 4.457 0 0 1-1.722.343h-81c-.597 0-1.17-.114-1.722-.343a4.458 4.458 0 0 1-1.46-.975 4.457 4.457 0 0 1-.976-1.46A4.457 4.457 0 0 1 314 381.5v-21c0-.597.114-1.17.343-1.722a4.456 4.456 0 0 1 .975-1.46 4.457 4.457 0 0 1 1.46-.975A4.458 4.458 0 0 1 318.5 356Z" style="fill:#647687;fill-opacity:1;fill-rule:nonzero;stroke:none" transform="translate(1.499 1.499) scale(2.99708)"/><path d="M318.5 356h81c.597 0 1.17.114 1.722.343a4.457 4.457 0 0 1 1.46.975c.422.422.747.909.975 1.46.229.551.343 1.125.343 1.722v21c0 .597-.114 1.17-.343 1.722a4.458 4.458 0 0 1-.975 1.46 4.458 4.458 0 0 1-1.46.975 4.457 4.457 0 0 1-1.722.343h-81c-.597 0-1.17-.114-1.722-.343a4.458 4.458 0 0 1-1.46-.975 4.457 4.457 0 0 1-.976-1.46A4.457 4.457 0 0 1 314 381.5v-21c0-.597.114-1.17.343-1.722a4.456 4.456 0 0 1 .975-1.46 4.457 4.457 0 0 1 1.46-.975A4.458 4.458 0 0 1 318.5 356Z" style="fill:none;stroke:#314354;stroke-width:1;stroke-linecap:butt;stroke-linejoin:miter;stroke-miterlimit:10;stroke-dasharray:none;stroke-opacity:1" transform="translate(1.499 1.499) scale(2.99708)"/><text transform="translate(963.513 1108.918) scale(2.99708)" style="font-variant:normal;font-weight:400;font-size:12px;font-family:Arimo;-inkscape-font-specification:Arimo;writing-mode:lr-tb;fill:#fff;fill-opacity:1;fill-rule:nonzero;stroke:none"><tspan x="0 8.0039062 14.677734 20.677734 24.673828 30.673828 37.347656 40.681641 47.355469 54.029297 57.363281 64.693359 68.027344" y="0">Encrypted ZIP</tspan></text><text transform="translate(1054.456 1150.877) scale(2.99708)" style="font-variant:normal;font-weight:400;font-size:12px;font-family:Arimo;-inkscape-font-specification:Arimo;writing-mode:lr-tb;fill:#fff;fill-opacity:1;fill-rule:nonzero;stroke:none"><tspan x="0 3.3339844 6 8.6660156" y="0">file</tspan></text><path d="M291 371h20-17 13.63" style="fill:none;stroke:#000;stroke-width:1;stroke-linecap:butt;stroke-linejoin:miter;stroke-miterlimit:10;stroke-dasharray:none;stroke-opacity:1" transform="translate(1.499 1.499) scale(2.99708)"/><path d="m312.88 371-7 3.5 1.75-3.5-1.75-3.5z" style="fill:#000;fill-opacity:1;fill-rule:nonzero;stroke:none" transform="translate(1.499 1.499) scale(2.99708)"/><path d="m312.88 371-7 3.5 1.75-3.5-1.75-3.5z" style="fill:none;stroke:#000;stroke-width:1;stroke-linecap:butt;stroke-linejoin:miter;stroke-miterlimit:10;stroke-dasharray:none;stroke-opacity:1" transform="translate(1.499 1.499) scale(2.99708)"/><path d="M171 341h120v60H171Z" style="fill:#fff;fill-opacity:1;fill-rule:nonzero;stroke:none" transform="translate(1.499 1.499) scale(2.99708)"/><path d="M171 341h120v60H171Z" style="fill:none;stroke:#000;stroke-width:1;stroke-linecap:butt;stroke-linejoin:miter;stroke-miterlimit:10;stroke-dasharray:none;stroke-opacity:1" transform="translate(1.499 1.499) scale(2.99708)"/><text transform="translate(576.375 1102.924) scale(2.99708)" style="font-variant:normal;font-weight:400;font-size:12px;font-family:Arimo;-inkscape-font-specification:Arimo;writing-mode:lr-tb;fill:#000;fill-opacity:1;fill-rule:nonzero;stroke:none"><tspan x="0 7.3300781 11.326172 18 24.673828 34.669922 41.34375 48.017578 51.351562 58.025391 61.359375 64.025391 70.699219" y="0">Fragmentation</tspan></text><text transform="translate(624.375 1147.88) scale(2.99708)" style="font-variant:normal;font-weight:400;font-size:12px;font-family:Arimo;-inkscape-font-specification:Arimo;writing-mode:lr-tb;fill:#000;fill-opacity:1;fill-rule:nonzero;stroke:none"><tspan x="0 8.6660156 15.339844 21.339844 28.013672 34.6875 41.361328" y="0">Decoder</tspan></text><path d="M294 371h20-20 13.63" style="fill:none;stroke:#000;stroke-width:1;stroke-linecap:butt;stroke-linejoin:miter;stroke-miterlimit:10;stroke-dasharray:none;stroke-opacity:1" transform="translate(1.499 1.499) scale(2.99708)"/><path d="m312.88 371-7 3.5 1.75-3.5-1.75-3.5z" style="fill:#000;fill-opacity:1;fill-rule:nonzero;stroke:none" transform="translate(1.499 1.499) scale(2.99708)"/><path d="m312.88 371-7 3.5 1.75-3.5-1.75-3.5zM108 301h93v33.63" style="fill:none;stroke:#000;stroke-width:1;stroke-linecap:butt;stroke-linejoin:miter;stroke-miterlimit:10;stroke-dasharray:none;stroke-opacity:1" transform="translate(1.499 1.499) scale(2.99708)"/><path d="m201 339.88-3.5-7 3.5 1.75 3.5-1.75z" style="fill:#000;fill-opacity:1;fill-rule:nonzero;stroke:none" transform="translate(1.499 1.499) scale(2.99708)"/><path d="m201 339.88-3.5-7 3.5 1.75 3.5-1.75zM231 295v39.63" style="fill:none;stroke:#000;stroke-width:1;stroke-linecap:butt;stroke-linejoin:miter;stroke-miterlimit:10;stroke-dasharray:none;stroke-opacity:1" transform="translate(1.499 1.499) scale(2.99708)"/><path d="m231 339.88-3.5-7 3.5 1.75 3.5-1.75z" style="fill:#000;fill-opacity:1;fill-rule:nonzero;stroke:none" transform="translate(1.499 1.499) scale(2.99708)"/><path d="m231 339.88-3.5-7 3.5 1.75 3.5-1.75zM373 305v6H254.5l.02 23.63" style="fill:none;stroke:#000;stroke-width:1;stroke-linecap:butt;stroke-linejoin:miter;stroke-miterlimit:10;stroke-dasharray:none;stroke-opacity:1" transform="translate(1.499 1.499) scale(2.99708)"/><path d="m254.52 339.88-3.51-7 3.51 1.75 3.49-1.75z" style="fill:#000;fill-opacity:1;fill-rule:nonzero;stroke:none" transform="translate(1.499 1.499) scale(2.99708)"/><path d="m254.52 339.88-3.51-7 3.51 1.75 3.49-1.75zM495 371h20-23 13.63" style="fill:none;stroke:#000;stroke-width:1;stroke-linecap:butt;stroke-linejoin:miter;stroke-miterlimit:10;stroke-dasharray:none;stroke-opacity:1" transform="translate(1.499 1.499) scale(2.99708)"/><path d="m510.88 371-7 3.5 1.75-3.5-1.75-3.5z" style="fill:#000;fill-opacity:1;fill-rule:nonzero;stroke:none" transform="translate(1.499 1.499) scale(2.99708)"/><path d="m510.88 371-7 3.5 1.75-3.5-1.75-3.5z" style="fill:none;stroke:#000;stroke-width:1;stroke-linecap:butt;stroke-linejoin:miter;stroke-miterlimit:10;stroke-dasharray:none;stroke-opacity:1" transform="translate(1.499 1.499) scale(2.99708)"/><path d="M428 356h67v30h-67z" style="fill:#fff;fill-opacity:1;fill-rule:nonzero;stroke:none" transform="translate(1.499 1.499) scale(2.99708)"/><path d="M428 356h67v30h-67z" style="fill:none;stroke:#000;stroke-width:1;stroke-linecap:butt;stroke-linejoin:miter;stroke-miterlimit:10;stroke-dasharray:none;stroke-opacity:1" transform="translate(1.499 1.499) scale(2.99708)"/><text transform="translate(1321.195 1102.924) scale(2.99708)" style="font-variant:normal;font-weight:400;font-size:12px;font-family:Arimo;-inkscape-font-specification:Arimo;writing-mode:lr-tb;fill:#000;fill-opacity:1;fill-rule:nonzero;stroke:none"><tspan x="0 8.6660156 15.339844 21.339844 25.335938 31.335938 38.009766" y="0">Decrypt</tspan></text><text transform="translate(1355.193 1147.88) scale(2.99708)" style="font-variant:normal;font-weight:400;font-size:12px;font-family:Arimo;-inkscape-font-specification:Arimo;writing-mode:lr-tb;fill:#000;fill-opacity:1;fill-rule:nonzero;stroke:none"><tspan x="0 7.3300781 10.664062" y="0">ZIP</tspan></text><path d="M516.5 356h81c.597 0 1.17.114 1.722.343a4.457 4.457 0 0 1 1.46.975c.422.422.747.909.975 1.46.229.551.343 1.125.343 1.722v21c0 .597-.114 1.17-.343 1.722a4.458 4.458 0 0 1-.975 1.46 4.457 4.457 0 0 1-1.46.975 4.457 4.457 0 0 1-1.722.343h-81c-.597 0-1.17-.114-1.722-.343a4.458 4.458 0 0 1-1.46-.975 4.456 4.456 0 0 1-.976-1.46A4.457 4.457 0 0 1 512 381.5v-21c0-.597.114-1.17.342-1.722a4.455 4.455 0 0 1 .976-1.46 4.457 4.457 0 0 1 1.46-.975A4.458 4.458 0 0 1 516.5 356Z" style="fill:#e1d5e7;fill-opacity:1;fill-rule:nonzero;stroke:none" transform="translate(1.499 1.499) scale(2.99708)"/><path d="M516.5 356h81c.597 0 1.17.114 1.722.343a4.457 4.457 0 0 1 1.46.975c.422.422.747.909.975 1.46.229.551.343 1.125.343 1.722v21c0 .597-.114 1.17-.343 1.722a4.458 4.458 0 0 1-.975 1.46 4.457 4.457 0 0 1-1.46.975 4.457 4.457 0 0 1-1.722.343h-81c-.597 0-1.17-.114-1.722-.343a4.458 4.458 0 0 1-1.46-.975 4.456 4.456 0 0 1-.976-1.46A4.457 4.457 0 0 1 512 381.5v-21c0-.597.114-1.17.342-1.722a4.455 4.455 0 0 1 .976-1.46 4.457 4.457 0 0 1 1.46-.975A4.458 4.458 0 0 1 516.5 356Z" style="fill:none;stroke:#9673a6;stroke-width:1;stroke-linecap:butt;stroke-linejoin:miter;stroke-miterlimit:10;stroke-dasharray:none;stroke-opacity:1" transform="translate(1.499 1.499) scale(2.99708)"/><text transform="translate(1555.95 1108.918) scale(2.99708)" style="font-variant:normal;font-weight:400;font-size:12px;font-family:Arimo;-inkscape-font-specification:Arimo;writing-mode:lr-tb;fill:#000;fill-opacity:1;fill-rule:nonzero;stroke:none"><tspan x="0 8.6660156 15.339844 21.339844 25.335938 31.335938 38.009766 41.34375 48.017578 54.691406 58.025391 65.355469 68.689453" y="0">Decrypted ZIP</tspan></text><text transform="translate(1647.923 1150.877) scale(2.99708)" style="font-variant:normal;font-weight:400;font-size:12px;font-family:Arimo;-inkscape-font-specification:Arimo;writing-mode:lr-tb;fill:#000;fill-opacity:1;fill-rule:nonzero;stroke:none"><tspan x="0 3.3339844 6 8.6660156" y="0">file</tspan></text><path d="M680.5 215h111c.597 0 1.17.114 1.722.343a4.458 4.458 0 0 1 1.46.975c.422.422.747.909.975 1.46.229.551.343 1.125.343 1.722v21c0 .597-.114 1.17-.343 1.722a4.458 4.458 0 0 1-.975 1.46 4.458 4.458 0 0 1-1.46.975 4.457 4.457 0 0 1-1.722.343h-111c-.597 0-1.17-.114-1.722-.343a4.457 4.457 0 0 1-1.46-.975 4.457 4.457 0 0 1-.976-1.46A4.455 4.455 0 0 1 676 240.5v-21c0-.597.114-1.17.342-1.722a4.457 4.457 0 0 1 .976-1.46 4.456 4.456 0 0 1 1.46-.975A4.458 4.458 0 0 1 680.5 215Z" style="fill:#e1d5e7;fill-opacity:1;fill-rule:nonzero;stroke:none" transform="translate(1.499 1.499) scale(2.99708)"/><path d="M680.5 215h111c.597 0 1.17.114 1.722.343a4.458 4.458 0 0 1 1.46.975c.422.422.747.909.975 1.46.229.551.343 1.125.343 1.722v21c0 .597-.114 1.17-.343 1.722a4.458 4.458 0 0 1-.975 1.46 4.458 4.458 0 0 1-1.46.975 4.457 4.457 0 0 1-1.722.343h-111c-.597 0-1.17-.114-1.722-.343a4.457 4.457 0 0 1-1.46-.975 4.457 4.457 0 0 1-.976-1.46A4.455 4.455 0 0 1 676 240.5v-21c0-.597.114-1.17.342-1.722a4.457 4.457 0 0 1 .976-1.46 4.456 4.456 0 0 1 1.46-.975A4.458 4.458 0 0 1 680.5 215Z" style="fill:none;stroke:#9673a6;stroke-width:1;stroke-linecap:butt;stroke-linejoin:miter;stroke-miterlimit:10;stroke-dasharray:none;stroke-opacity:1" transform="translate(1.499 1.499) scale(2.99708)"/><text transform="translate(2064.892 701.316) scale(2.99708)" style="font-variant:normal;font-weight:400;font-size:12px;font-family:Arimo;-inkscape-font-specification:Arimo;writing-mode:lr-tb;fill:#000;fill-opacity:1;fill-rule:nonzero;stroke:none"><tspan x="0 8.6660156 15.339844 21.339844 25.335938 31.335938 38.009766 41.34375 44.009766 50.683594 57.357422 60.691406 67.365234 74.039062 77.373047 84.046875 90.720703" y="0">Decryption output</tspan></text></g></svg>