<svg xml:space="preserve" width="837.44" height="817.28" xmlns="http://www.w3.org/2000/svg"><defs><clipPath clipPathUnits="userSpaceOnUse" id="a"><path d="M0 0h2616.667v2553.723H0Z" clip-rule="evenodd"/></clipPath><clipPath clipPathUnits="userSpaceOnUse" id="b"><path d="M0 0h2616.667v2547.728H0Z" clip-rule="evenodd"/></clipPath></defs><g clip-path="url(#a)" transform="scale(.32)"><path d="M0 0h873v852H0Z" style="fill:#fff;fill-opacity:1;fill-rule:nonzero;stroke:none" transform="scale(2.99733)"/></g><g clip-path="url(#b)" transform="scale(.32)"><path d="M141 48v20-10 13.63" style="fill:none;stroke:#000;stroke-width:1;stroke-linecap:butt;stroke-linejoin:miter;stroke-miterlimit:10;stroke-dasharray:none;stroke-opacity:1" transform="translate(1.499 1.499) scale(2.99733)"/><path d="m141 76.88-3.5-7 3.5 1.75 3.5-1.75z" style="fill:#000;fill-opacity:1;fill-rule:nonzero;stroke:none" transform="translate(1.499 1.499) scale(2.99733)"/><path d="m141 76.88-3.5-7 3.5 1.75 3.5-1.75z" style="fill:none;stroke:#000;stroke-width:1;stroke-linecap:butt;stroke-linejoin:miter;stroke-miterlimit:10;stroke-dasharray:none;stroke-opacity:1" transform="translate(1.499 1.499) scale(2.99733)"/><path d="M124 28h34a2.994 2.994 0 0 1 2.771 1.852c.153.367.229.75.229 1.148v14c0 .398-.076.78-.228 1.148a2.972 2.972 0 0 1-.65.973 2.972 2.972 0 0 1-.974.65c-.368.153-.75.229-1.148.229h-34c-.398 0-.78-.076-1.148-.228a2.971 2.971 0 0 1-.973-.65 2.971 2.971 0 0 1-.65-.974A2.971 2.971 0 0 1 121 45V31a2.994 2.994 0 0 1 1.852-2.771c.367-.153.75-.229 1.148-.229Z" style="fill:#dae8fc;fill-opacity:1;fill-rule:nonzero;stroke:none" transform="translate(1.499 1.499) scale(2.99733)"/><path d="M124 28h34a2.994 2.994 0 0 1 2.771 1.852c.153.367.229.75.229 1.148v14c0 .398-.076.78-.228 1.148a2.972 2.972 0 0 1-.65.973 2.972 2.972 0 0 1-.974.65c-.368.153-.75.229-1.148.229h-34c-.398 0-.78-.076-1.148-.228a2.971 2.971 0 0 1-.973-.65 2.971 2.971 0 0 1-.65-.974A2.971 2.971 0 0 1 121 45V31a2.994 2.994 0 0 1 1.852-2.771c.367-.153.75-.229 1.148-.229Z" style="fill:none;stroke:#6c8ebf;stroke-width:1;stroke-linecap:butt;stroke-linejoin:miter;stroke-miterlimit:10;stroke-dasharray:none;stroke-opacity:1" transform="translate(1.499 1.499) scale(2.99733)"/><text transform="translate(387.967 125.888) scale(2.99733)" style="font-variant:normal;font-weight:400;font-size:12px;font-family:Arimo;-inkscape-font-specification:Arimo;writing-mode:lr-tb;fill:#000;fill-opacity:1;fill-rule:nonzero;stroke:none"><tspan x="0 7.1132812 14.443359" y="0">ATD</tspan></text><path d="M306 48v20-10 13.63" style="fill:none;stroke:#000;stroke-width:1;stroke-linecap:butt;stroke-linejoin:miter;stroke-miterlimit:10;stroke-dasharray:none;stroke-opacity:1" transform="translate(1.499 1.499) scale(2.99733)"/><path d="m306 76.88-3.5-7 3.5 1.75 3.5-1.75z" style="fill:#000;fill-opacity:1;fill-rule:nonzero;stroke:none" transform="translate(1.499 1.499) scale(2.99733)"/><path d="m306 76.88-3.5-7 3.5 1.75 3.5-1.75z" style="fill:none;stroke:#000;stroke-width:1;stroke-linecap:butt;stroke-linejoin:miter;stroke-miterlimit:10;stroke-dasharray:none;stroke-opacity:1" transform="translate(1.499 1.499) scale(2.99733)"/><path d="M289 28h34a2.994 2.994 0 0 1 2.771 1.852c.153.367.229.75.229 1.148v14c0 .398-.076.78-.228 1.148a2.972 2.972 0 0 1-.65.973 2.972 2.972 0 0 1-.974.65c-.368.153-.75.229-1.148.229h-34c-.398 0-.78-.076-1.148-.228a2.971 2.971 0 0 1-.973-.65 2.972 2.972 0 0 1-.65-.974A2.97 2.97 0 0 1 286 45V31a2.994 2.994 0 0 1 1.852-2.771c.367-.153.75-.229 1.148-.229Z" style="fill:#dae8fc;fill-opacity:1;fill-rule:nonzero;stroke:none" transform="translate(1.499 1.499) scale(2.99733)"/><path d="M289 28h34a2.994 2.994 0 0 1 2.771 1.852c.153.367.229.75.229 1.148v14c0 .398-.076.78-.228 1.148a2.972 2.972 0 0 1-.65.973 2.972 2.972 0 0 1-.974.65c-.368.153-.75.229-1.148.229h-34c-.398 0-.78-.076-1.148-.228a2.971 2.971 0 0 1-.973-.65 2.972 2.972 0 0 1-.65-.974A2.97 2.97 0 0 1 286 45V31a2.994 2.994 0 0 1 1.852-2.771c.367-.153.75-.229 1.148-.229Z" style="fill:none;stroke:#6c8ebf;stroke-width:1;stroke-linecap:butt;stroke-linejoin:miter;stroke-miterlimit:10;stroke-dasharray:none;stroke-opacity:1" transform="translate(1.499 1.499) scale(2.99733)"/><text transform="translate(873.534 125.888) scale(2.99733)" style="font-variant:normal;font-weight:400;font-size:12px;font-family:Arimo;-inkscape-font-specification:Arimo;writing-mode:lr-tb;fill:#000;fill-opacity:1;fill-rule:nonzero;stroke:none"><tspan x="0 7.1132812 14.443359 22.447266" y="0">ATK1</tspan></text><path d="M459 48v20-10 13.63" style="fill:none;stroke:#000;stroke-width:1;stroke-linecap:butt;stroke-linejoin:miter;stroke-miterlimit:10;stroke-dasharray:none;stroke-opacity:1" transform="translate(1.499 1.499) scale(2.99733)"/><path d="m459 76.88-3.5-7 3.5 1.75 3.5-1.75z" style="fill:#000;fill-opacity:1;fill-rule:nonzero;stroke:none" transform="translate(1.499 1.499) scale(2.99733)"/><path d="m459 76.88-3.5-7 3.5 1.75 3.5-1.75z" style="fill:none;stroke:#000;stroke-width:1;stroke-linecap:butt;stroke-linejoin:miter;stroke-miterlimit:10;stroke-dasharray:none;stroke-opacity:1" transform="translate(1.499 1.499) scale(2.99733)"/><path d="M442 28h34a2.994 2.994 0 0 1 2.771 1.852c.153.367.229.75.229 1.148v14c0 .398-.076.78-.228 1.148a2.971 2.971 0 0 1-.65.973 2.972 2.972 0 0 1-.974.65c-.368.153-.75.229-1.148.229h-34c-.398 0-.78-.076-1.148-.228a2.971 2.971 0 0 1-.973-.65 2.972 2.972 0 0 1-.65-.974A2.971 2.971 0 0 1 439 45V31a2.994 2.994 0 0 1 1.852-2.771c.367-.153.75-.229 1.148-.229Z" style="fill:#dae8fc;fill-opacity:1;fill-rule:nonzero;stroke:none" transform="translate(1.499 1.499) scale(2.99733)"/><path d="M442 28h34a2.994 2.994 0 0 1 2.771 1.852c.153.367.229.75.229 1.148v14c0 .398-.076.78-.228 1.148a2.971 2.971 0 0 1-.65.973 2.972 2.972 0 0 1-.974.65c-.368.153-.75.229-1.148.229h-34c-.398 0-.78-.076-1.148-.228a2.971 2.971 0 0 1-.973-.65 2.972 2.972 0 0 1-.65-.974A2.971 2.971 0 0 1 439 45V31a2.994 2.994 0 0 1 1.852-2.771c.367-.153.75-.229 1.148-.229Z" style="fill:none;stroke:#6c8ebf;stroke-width:1;stroke-linecap:butt;stroke-linejoin:miter;stroke-miterlimit:10;stroke-dasharray:none;stroke-opacity:1" transform="translate(1.499 1.499) scale(2.99733)"/><text transform="translate(1332.125 125.888) scale(2.99733)" style="font-variant:normal;font-weight:400;font-size:12px;font-family:Arimo;-inkscape-font-specification:Arimo;writing-mode:lr-tb;fill:#000;fill-opacity:1;fill-rule:nonzero;stroke:none"><tspan x="0 7.1132812 14.443359 22.447266" y="0">ATK2</tspan></text><path d="M166 513h33.63" style="fill:none;stroke:#000;stroke-width:1;stroke-linecap:butt;stroke-linejoin:miter;stroke-miterlimit:10;stroke-dasharray:none;stroke-opacity:1" transform="translate(1.499 1.499) scale(2.99733)"/><path d="m204.88 513-7 3.5 1.75-3.5-1.75-3.5z" style="fill:#000;fill-opacity:1;fill-rule:nonzero;stroke:none" transform="translate(1.499 1.499) scale(2.99733)"/><path d="m204.88 513-7 3.5 1.75-3.5-1.75-3.5zM121 538v37.5H61v31.13" style="fill:none;stroke:#000;stroke-width:1;stroke-linecap:butt;stroke-linejoin:miter;stroke-miterlimit:10;stroke-dasharray:none;stroke-opacity:1" transform="translate(1.499 1.499) scale(2.99733)"/><path d="m61 611.88-3.5-7 3.5 1.75 3.5-1.75z" style="fill:#000;fill-opacity:1;fill-rule:nonzero;stroke:none" transform="translate(1.499 1.499) scale(2.99733)"/><path d="m61 611.88-3.5-7 3.5 1.75 3.5-1.75z" style="fill:none;stroke:#000;stroke-width:1;stroke-linecap:butt;stroke-linejoin:miter;stroke-miterlimit:10;stroke-dasharray:none;stroke-opacity:1" transform="translate(1.499 1.499) scale(2.99733)"/><path d="M83.5 488h75a7.48 7.48 0 0 1 4.167 1.264 7.48 7.48 0 0 1 2.762 3.366 7.482 7.482 0 0 1 .571 2.87v35a7.478 7.478 0 0 1-.57 2.87 7.483 7.483 0 0 1-2.763 3.366A7.482 7.482 0 0 1 158.5 538h-75a7.475 7.475 0 0 1-2.87-.57 7.486 7.486 0 0 1-3.366-2.763A7.483 7.483 0 0 1 76 530.5v-35a7.482 7.482 0 0 1 1.264-4.167 7.484 7.484 0 0 1 3.366-2.762A7.483 7.483 0 0 1 83.5 488Z" style="fill:#dae8fc;fill-opacity:1;fill-rule:nonzero;stroke:none" transform="translate(1.499 1.499) scale(2.99733)"/><path d="M83.5 488h75a7.48 7.48 0 0 1 4.167 1.264 7.48 7.48 0 0 1 2.762 3.366 7.482 7.482 0 0 1 .571 2.87v35a7.478 7.478 0 0 1-.57 2.87 7.483 7.483 0 0 1-2.763 3.366A7.482 7.482 0 0 1 158.5 538h-75a7.475 7.475 0 0 1-2.87-.57 7.486 7.486 0 0 1-3.366-2.763A7.483 7.483 0 0 1 76 530.5v-35a7.482 7.482 0 0 1 1.264-4.167 7.484 7.484 0 0 1 3.366-2.762A7.483 7.483 0 0 1 83.5 488Z" style="fill:none;stroke:#6c8ebf;stroke-width:1;stroke-linecap:butt;stroke-linejoin:miter;stroke-miterlimit:10;stroke-dasharray:none;stroke-opacity:1" transform="translate(1.499 1.499) scale(2.99733)"/><text transform="translate(328.676 1528.637) scale(2.99733)" style="font-variant:normal;font-weight:400;font-size:12px;font-family:Arimo;-inkscape-font-specification:Arimo;writing-mode:lr-tb;fill:#000;fill-opacity:1;fill-rule:nonzero;stroke:none"><tspan x="0 8.0039062 16.007812" y="0">AK3</tspan></text><text transform="translate(290.74 1573.597) scale(2.99733)" style="font-variant:normal;font-weight:400;font-size:12px;font-family:Arimo;-inkscape-font-specification:Arimo;writing-mode:lr-tb;fill:#000;fill-opacity:1;fill-rule:nonzero;stroke:none"><tspan x="0 7.3300781 10.664062 17.994141 25.324219 28.658203 35.988281 38.654297 41.320312" y="0">TIFF File</tspan></text><path d="M141 128v20-10 13.63" style="fill:none;stroke:#000;stroke-width:1;stroke-linecap:butt;stroke-linejoin:miter;stroke-miterlimit:10;stroke-dasharray:none;stroke-opacity:1" transform="translate(1.499 1.499) scale(2.99733)"/><path d="m141 156.88-3.5-7 3.5 1.75 3.5-1.75z" style="fill:#000;fill-opacity:1;fill-rule:nonzero;stroke:none" transform="translate(1.499 1.499) scale(2.99733)"/><path d="m141 156.88-3.5-7 3.5 1.75 3.5-1.75z" style="fill:none;stroke:#000;stroke-width:1;stroke-linecap:butt;stroke-linejoin:miter;stroke-miterlimit:10;stroke-dasharray:none;stroke-opacity:1" transform="translate(1.499 1.499) scale(2.99733)"/><path d="M76 78h130v50H76Z" style="fill:#fff;fill-opacity:1;fill-rule:nonzero;stroke:none" transform="translate(1.499 1.499) scale(2.99733)"/><path d="M76 78h130v50H76Z" style="fill:none;stroke:#000;stroke-width:1;stroke-linecap:butt;stroke-linejoin:miter;stroke-miterlimit:10;stroke-dasharray:none;stroke-opacity:1" transform="translate(1.499 1.499) scale(2.99733)"/><text transform="translate(317.67 299.733) scale(2.99733)" style="font-variant:normal;font-weight:400;font-size:12px;font-family:Arimo;-inkscape-font-specification:Arimo;writing-mode:lr-tb;fill:#000;fill-opacity:1;fill-rule:nonzero;stroke:none"><tspan x="0 8.6660156 15.339844 21.339844 25.335938 31.335938 38.009766 41.34375 44.677734 53.34375 61.347656" y="0">Decrypt CBC</tspan></text><text transform="translate(251.682 344.693) scale(2.99733)" style="font-variant:normal;font-weight:400;font-size:12px;font-family:Arimo;-inkscape-font-specification:Arimo;writing-mode:lr-tb;fill:#000;fill-opacity:1;fill-rule:nonzero;stroke:none"><tspan x="0 3.9960938 12 20.003906 28.007812 34.681641 41.355469 48.029297 51.363281 60.029297 68.695312 75.369141 78.703125 85.376953 94.042969 102.04688 110.05078" y="0">(AES256/RC2/3DES)</tspan></text><path d="M306 128v20-10 13.63" style="fill:none;stroke:#000;stroke-width:1;stroke-linecap:butt;stroke-linejoin:miter;stroke-miterlimit:10;stroke-dasharray:none;stroke-opacity:1" transform="translate(1.499 1.499) scale(2.99733)"/><path d="m306 156.88-3.5-7 3.5 1.75 3.5-1.75z" style="fill:#000;fill-opacity:1;fill-rule:nonzero;stroke:none" transform="translate(1.499 1.499) scale(2.99733)"/><path d="m306 156.88-3.5-7 3.5 1.75 3.5-1.75z" style="fill:none;stroke:#000;stroke-width:1;stroke-linecap:butt;stroke-linejoin:miter;stroke-miterlimit:10;stroke-dasharray:none;stroke-opacity:1" transform="translate(1.499 1.499) scale(2.99733)"/><path d="M241 78h130v50H241Z" style="fill:#fff;fill-opacity:1;fill-rule:nonzero;stroke:none" transform="translate(1.499 1.499) scale(2.99733)"/><path d="M241 78h130v50H241Z" style="fill:none;stroke:#000;stroke-width:1;stroke-linecap:butt;stroke-linejoin:miter;stroke-miterlimit:10;stroke-dasharray:none;stroke-opacity:1" transform="translate(1.499 1.499) scale(2.99733)"/><text transform="translate(812.229 299.733) scale(2.99733)" style="font-variant:normal;font-weight:400;font-size:12px;font-family:Arimo;-inkscape-font-specification:Arimo;writing-mode:lr-tb;fill:#000;fill-opacity:1;fill-rule:nonzero;stroke:none"><tspan x="0 8.6660156 15.339844 21.339844 25.335938 31.335938 38.009766 41.34375 44.677734 53.34375 61.347656" y="0">Decrypt CBC</tspan></text><text transform="translate(746.24 344.693) scale(2.99733)" style="font-variant:normal;font-weight:400;font-size:12px;font-family:Arimo;-inkscape-font-specification:Arimo;writing-mode:lr-tb;fill:#000;fill-opacity:1;fill-rule:nonzero;stroke:none"><tspan x="0 3.9960938 12 20.003906 28.007812 34.681641 41.355469 48.029297 51.363281 60.029297 68.695312 75.369141 78.703125 85.376953 94.042969 102.04688 110.05078" y="0">(AES256/RC2/3DES)</tspan></text><path d="M459 128v20l-.18 3.64" style="fill:none;stroke:#000;stroke-width:1;stroke-linecap:butt;stroke-linejoin:miter;stroke-miterlimit:10;stroke-dasharray:none;stroke-opacity:1" transform="translate(1.499 1.499) scale(2.99733)"/><path d="m458.56 156.88-3.15-7.16 3.41 1.92 3.58-1.57z" style="fill:#000;fill-opacity:1;fill-rule:nonzero;stroke:none" transform="translate(1.499 1.499) scale(2.99733)"/><path d="m458.56 156.88-3.15-7.16 3.41 1.92 3.58-1.57z" style="fill:none;stroke:#000;stroke-width:1;stroke-linecap:butt;stroke-linejoin:miter;stroke-miterlimit:10;stroke-dasharray:none;stroke-opacity:1" transform="translate(1.499 1.499) scale(2.99733)"/><path d="M394 78h130v50H394Z" style="fill:#fff;fill-opacity:1;fill-rule:nonzero;stroke:none" transform="translate(1.499 1.499) scale(2.99733)"/><path d="M394 78h130v50H394Z" style="fill:none;stroke:#000;stroke-width:1;stroke-linecap:butt;stroke-linejoin:miter;stroke-miterlimit:10;stroke-dasharray:none;stroke-opacity:1" transform="translate(1.499 1.499) scale(2.99733)"/><text transform="translate(1270.82 299.733) scale(2.99733)" style="font-variant:normal;font-weight:400;font-size:12px;font-family:Arimo;-inkscape-font-specification:Arimo;writing-mode:lr-tb;fill:#000;fill-opacity:1;fill-rule:nonzero;stroke:none"><tspan x="0 8.6660156 15.339844 21.339844 25.335938 31.335938 38.009766 41.34375 44.677734 53.34375 61.347656" y="0">Decrypt CBC</tspan></text><text transform="translate(1204.832 344.693) scale(2.99733)" style="font-variant:normal;font-weight:400;font-size:12px;font-family:Arimo;-inkscape-font-specification:Arimo;writing-mode:lr-tb;fill:#000;fill-opacity:1;fill-rule:nonzero;stroke:none"><tspan x="0 3.9960938 12 20.003906 28.007812 34.681641 41.355469 48.029297 51.363281 60.029297 68.695312 75.369141 78.703125 85.376953 94.042969 102.04688 110.05078" y="0">(AES256/RC2/3DES)</tspan></text><path d="M141 178v20l-.18 3.64" style="fill:none;stroke:#000;stroke-width:1;stroke-linecap:butt;stroke-linejoin:miter;stroke-miterlimit:10;stroke-dasharray:none;stroke-opacity:1" transform="translate(1.499 1.499) scale(2.99733)"/><path d="m140.56 206.88-3.15-7.16 3.41 1.92 3.58-1.57z" style="fill:#000;fill-opacity:1;fill-rule:nonzero;stroke:none" transform="translate(1.499 1.499) scale(2.99733)"/><path d="m140.56 206.88-3.15-7.16 3.41 1.92 3.58-1.57z" style="fill:none;stroke:#000;stroke-width:1;stroke-linecap:butt;stroke-linejoin:miter;stroke-miterlimit:10;stroke-dasharray:none;stroke-opacity:1" transform="translate(1.499 1.499) scale(2.99733)"/><path d="M98.5 158h85v20h-85z" style="fill:#eee;fill-opacity:1;fill-rule:nonzero;stroke:none" transform="translate(1.499 1.499) scale(2.99733)"/><path d="M98.5 158h85v20h-85z" style="fill:none;stroke:#36393d;stroke-width:1;stroke-linecap:butt;stroke-linejoin:miter;stroke-miterlimit:10;stroke-dasharray:none;stroke-opacity:1" transform="translate(1.499 1.499) scale(2.99733)"/><text transform="translate(357.15 515.54) scale(2.99733)" style="font-variant:normal;font-weight:400;font-size:12px;font-family:Arimo;-inkscape-font-specification:Arimo;writing-mode:lr-tb;fill:#000;fill-opacity:1;fill-rule:nonzero;stroke:none"><tspan x="0 9.3339844 16.664062 19.330078 26.003906 29.337891 32.671875 35.337891 38.003906" y="0">GZip file</tspan></text><path d="M140.5 242v43.63" style="fill:none;stroke:#000;stroke-width:1;stroke-linecap:butt;stroke-linejoin:miter;stroke-miterlimit:10;stroke-dasharray:none;stroke-opacity:1" transform="translate(1.499 1.499) scale(2.99733)"/><path d="m140.5 290.88-3.5-7 3.5 1.75 3.5-1.75z" style="fill:#000;fill-opacity:1;fill-rule:nonzero;stroke:none" transform="translate(1.499 1.499) scale(2.99733)"/><path d="m140.5 290.88-3.5-7 3.5 1.75 3.5-1.75zM306 178v20l-.18 3.64" style="fill:none;stroke:#000;stroke-width:1;stroke-linecap:butt;stroke-linejoin:miter;stroke-miterlimit:10;stroke-dasharray:none;stroke-opacity:1" transform="translate(1.499 1.499) scale(2.99733)"/><path d="m305.56 206.88-3.15-7.16 3.41 1.92 3.58-1.57z" style="fill:#000;fill-opacity:1;fill-rule:nonzero;stroke:none" transform="translate(1.499 1.499) scale(2.99733)"/><path d="m305.56 206.88-3.15-7.16 3.41 1.92 3.58-1.57z" style="fill:none;stroke:#000;stroke-width:1;stroke-linecap:butt;stroke-linejoin:miter;stroke-miterlimit:10;stroke-dasharray:none;stroke-opacity:1" transform="translate(1.499 1.499) scale(2.99733)"/><path d="M263.5 158h85v20h-85z" style="fill:#eee;fill-opacity:1;fill-rule:nonzero;stroke:none" transform="translate(1.499 1.499) scale(2.99733)"/><path d="M263.5 158h85v20h-85z" style="fill:none;stroke:#36393d;stroke-width:1;stroke-linecap:butt;stroke-linejoin:miter;stroke-miterlimit:10;stroke-dasharray:none;stroke-opacity:1" transform="translate(1.499 1.499) scale(2.99733)"/><text transform="translate(851.71 515.54) scale(2.99733)" style="font-variant:normal;font-weight:400;font-size:12px;font-family:Arimo;-inkscape-font-specification:Arimo;writing-mode:lr-tb;fill:#000;fill-opacity:1;fill-rule:nonzero;stroke:none"><tspan x="0 9.3339844 16.664062 19.330078 26.003906 29.337891 32.671875 35.337891 38.003906" y="0">GZip file</tspan></text><path d="M458.5 178v107.63" style="fill:none;stroke:#000;stroke-width:1;stroke-linecap:butt;stroke-linejoin:miter;stroke-miterlimit:10;stroke-dasharray:none;stroke-opacity:1" transform="translate(1.499 1.499) scale(2.99733)"/><path d="m458.5 290.88-3.5-7 3.5 1.75 3.5-1.75z" style="fill:#000;fill-opacity:1;fill-rule:nonzero;stroke:none" transform="translate(1.499 1.499) scale(2.99733)"/><path d="m458.5 290.88-3.5-7 3.5 1.75 3.5-1.75z" style="fill:none;stroke:#000;stroke-width:1;stroke-linecap:butt;stroke-linejoin:miter;stroke-miterlimit:10;stroke-dasharray:none;stroke-opacity:1" transform="translate(1.499 1.499) scale(2.99733)"/><path d="M416 158h85v20h-85z" style="fill:#eee;fill-opacity:1;fill-rule:nonzero;stroke:none" transform="translate(1.499 1.499) scale(2.99733)"/><path d="M416 158h85v20h-85z" style="fill:none;stroke:#36393d;stroke-width:1;stroke-linecap:butt;stroke-linejoin:miter;stroke-miterlimit:10;stroke-dasharray:none;stroke-opacity:1" transform="translate(1.499 1.499) scale(2.99733)"/><text transform="translate(1307.303 515.54) scale(2.99733)" style="font-variant:normal;font-weight:400;font-size:12px;font-family:Arimo;-inkscape-font-specification:Arimo;writing-mode:lr-tb;fill:#000;fill-opacity:1;fill-rule:nonzero;stroke:none"><tspan x="0 9.3339844 16.664062 19.330078 26.003906 29.337891 32.671875 35.337891 38.003906" y="0">GZip file</tspan></text><path d="M266 513h43.63" style="fill:none;stroke:#000;stroke-width:1;stroke-linecap:butt;stroke-linejoin:miter;stroke-miterlimit:10;stroke-dasharray:none;stroke-opacity:1" transform="translate(1.499 1.499) scale(2.99733)"/><path d="m314.88 513-7 3.5 1.75-3.5-1.75-3.5z" style="fill:#000;fill-opacity:1;fill-rule:nonzero;stroke:none" transform="translate(1.499 1.499) scale(2.99733)"/><path d="m314.88 513-7 3.5 1.75-3.5-1.75-3.5zM236 528v20-20 13.63" style="fill:none;stroke:#000;stroke-width:1;stroke-linecap:butt;stroke-linejoin:miter;stroke-miterlimit:10;stroke-dasharray:none;stroke-opacity:1" transform="translate(1.499 1.499) scale(2.99733)"/><path d="m236 546.88-3.5-7 3.5 1.75 3.5-1.75z" style="fill:#000;fill-opacity:1;fill-rule:nonzero;stroke:none" transform="translate(1.499 1.499) scale(2.99733)"/><path d="m236 546.88-3.5-7 3.5 1.75 3.5-1.75z" style="fill:none;stroke:#000;stroke-width:1;stroke-linecap:butt;stroke-linejoin:miter;stroke-miterlimit:10;stroke-dasharray:none;stroke-opacity:1" transform="translate(1.499 1.499) scale(2.99733)"/><path d="M210.5 498h51c.597 0 1.17.114 1.722.343a4.457 4.457 0 0 1 1.46.975c.422.422.747.909.975 1.46.229.551.343 1.125.343 1.722v21c0 .597-.114 1.17-.343 1.722a4.458 4.458 0 0 1-.975 1.46 4.457 4.457 0 0 1-1.46.975 4.459 4.459 0 0 1-1.722.343h-51c-.597 0-1.17-.114-1.722-.343a4.457 4.457 0 0 1-1.46-.975 4.459 4.459 0 0 1-.975-1.46A4.457 4.457 0 0 1 206 523.5v-21c0-.597.114-1.17.343-1.722a4.457 4.457 0 0 1 .975-1.46 4.458 4.458 0 0 1 1.46-.976A4.458 4.458 0 0 1 210.5 498Z" style="fill:#60a917;fill-opacity:1;fill-rule:nonzero;stroke:none" transform="translate(1.499 1.499) scale(2.99733)"/><path d="M210.5 498h51c.597 0 1.17.114 1.722.343a4.457 4.457 0 0 1 1.46.975c.422.422.747.909.975 1.46.229.551.343 1.125.343 1.722v21c0 .597-.114 1.17-.343 1.722a4.458 4.458 0 0 1-.975 1.46 4.457 4.457 0 0 1-1.46.975 4.459 4.459 0 0 1-1.722.343h-51c-.597 0-1.17-.114-1.722-.343a4.457 4.457 0 0 1-1.46-.975 4.459 4.459 0 0 1-.975-1.46A4.457 4.457 0 0 1 206 523.5v-21c0-.597.114-1.17.343-1.722a4.457 4.457 0 0 1 .975-1.46 4.458 4.458 0 0 1 1.46-.976A4.458 4.458 0 0 1 210.5 498Z" style="fill:none;stroke:#2d7600;stroke-width:1;stroke-linecap:butt;stroke-linejoin:miter;stroke-miterlimit:10;stroke-dasharray:none;stroke-opacity:1" transform="translate(1.499 1.499) scale(2.99733)"/><text transform="translate(630.422 1528.637) scale(2.99733)" style="font-variant:normal;font-weight:400;font-size:12px;font-family:Arimo;-inkscape-font-specification:Arimo;writing-mode:lr-tb;fill:#fff;fill-opacity:1;fill-rule:nonzero;stroke:none"><tspan x="0 8.6660156 15.339844 22.013672 28.013672 32.009766 34.675781 41.349609 48.023438" y="0">Copyright</tspan></text><text transform="translate(632.39 1573.597) scale(2.99733)" style="font-variant:normal;font-weight:400;font-size:12px;font-family:Arimo;-inkscape-font-specification:Arimo;writing-mode:lr-tb;fill:#fff;fill-opacity:1;fill-rule:nonzero;stroke:none"><tspan x="0 9.9960938 16.669922 20.003906 26.677734 33.351562 40.025391 43.359375" y="0">metadata</tspan></text><path d="M416 513h29v95h46.63" style="fill:none;stroke:#000;stroke-width:1;stroke-linecap:butt;stroke-linejoin:miter;stroke-miterlimit:10;stroke-dasharray:none;stroke-opacity:1" transform="translate(1.499 1.499) scale(2.99733)"/><path d="m496.88 608-7 3.5 1.75-3.5-1.75-3.5z" style="fill:#000;fill-opacity:1;fill-rule:nonzero;stroke:none" transform="translate(1.499 1.499) scale(2.99733)"/><path d="m496.88 608-7 3.5 1.75-3.5-1.75-3.5zM366 523v65h-70v33.63" style="fill:none;stroke:#000;stroke-width:1;stroke-linecap:butt;stroke-linejoin:miter;stroke-miterlimit:10;stroke-dasharray:none;stroke-opacity:1" transform="translate(1.499 1.499) scale(2.99733)"/><path d="m296 626.88-3.5-7 3.5 1.75 3.5-1.75z" style="fill:#000;fill-opacity:1;fill-rule:nonzero;stroke:none" transform="translate(1.499 1.499) scale(2.99733)"/><path d="m296 626.88-3.5-7 3.5 1.75 3.5-1.75zM366 503v-45H55.2l.01-26.62" style="fill:none;stroke:#000;stroke-width:1;stroke-linecap:butt;stroke-linejoin:miter;stroke-miterlimit:10;stroke-dasharray:none;stroke-opacity:1" transform="translate(1.499 1.499) scale(2.99733)"/><path d="m55.21 426.13 3.5 7-3.5-1.75-3.5 1.75z" style="fill:#000;fill-opacity:1;fill-rule:nonzero;stroke:none" transform="translate(1.499 1.499) scale(2.99733)"/><path d="m55.21 426.13 3.5 7-3.5-1.75-3.5 1.75zM416 513h120.5v-48.63" style="fill:none;stroke:#000;stroke-width:1;stroke-linecap:butt;stroke-linejoin:miter;stroke-miterlimit:10;stroke-dasharray:none;stroke-opacity:1" transform="translate(1.499 1.499) scale(2.99733)"/><path d="m536.5 459.12 3.5 7-3.5-1.75-3.5 1.75z" style="fill:#000;fill-opacity:1;fill-rule:nonzero;stroke:none" transform="translate(1.499 1.499) scale(2.99733)"/><path d="m536.5 459.12 3.5 7-3.5-1.75-3.5 1.75z" style="fill:none;stroke:#000;stroke-width:1;stroke-linecap:butt;stroke-linejoin:miter;stroke-miterlimit:10;stroke-dasharray:none;stroke-opacity:1" transform="translate(1.499 1.499) scale(2.99733)"/><path d="M319 503h94a3.005 3.005 0 0 1 3 3v14c0 .398-.076.78-.228 1.148a2.973 2.973 0 0 1-.65.973 2.973 2.973 0 0 1-.974.65c-.368.153-.75.229-1.148.229h-94c-.398 0-.78-.076-1.148-.228a2.972 2.972 0 0 1-.973-.65 2.972 2.972 0 0 1-.65-.974A2.97 2.97 0 0 1 316 520v-14a2.994 2.994 0 0 1 1.852-2.771c.367-.153.75-.229 1.148-.229Z" style="fill:#cdeb8b;fill-opacity:1;fill-rule:nonzero;stroke:none" transform="translate(1.499 1.499) scale(2.99733)"/><path d="M319 503h94a3.005 3.005 0 0 1 3 3v14c0 .398-.076.78-.228 1.148a2.973 2.973 0 0 1-.65.973 2.973 2.973 0 0 1-.974.65c-.368.153-.75.229-1.148.229h-94c-.398 0-.78-.076-1.148-.228a2.972 2.972 0 0 1-.973-.65 2.972 2.972 0 0 1-.65-.974A2.97 2.97 0 0 1 316 520v-14a2.994 2.994 0 0 1 1.852-2.771c.367-.153.75-.229 1.148-.229Z" style="fill:none;stroke:#36393d;stroke-width:1;stroke-linecap:butt;stroke-linejoin:miter;stroke-miterlimit:10;stroke-dasharray:none;stroke-opacity:1" transform="translate(1.499 1.499) scale(2.99733)"/><text transform="translate(953.15 1549.618) scale(2.99733)" style="font-variant:normal;font-weight:400;font-size:12px;font-family:Arimo;-inkscape-font-specification:Arimo;writing-mode:lr-tb;fill:#000;fill-opacity:1;fill-rule:nonzero;stroke:none"><tspan x="0 6.8847656 9.5507812 19.546875 26.220703 34.224609 40.898438 46.898438 50.232422 57.240234 60.574219 69.908203 76.582031 83.255859" y="0">TimeKey + Gaps</tspan></text><path d="M618 608h40v-20l.34-13.63" style="fill:none;stroke:#000;stroke-width:1;stroke-linecap:butt;stroke-linejoin:miter;stroke-miterlimit:10;stroke-dasharray:none;stroke-opacity:1" transform="translate(1.499 1.499) scale(2.99733)"/><path d="m658.47 569.12 3.33 7.08-3.46-1.83-3.54 1.66z" style="fill:#000;fill-opacity:1;fill-rule:nonzero;stroke:none" transform="translate(1.499 1.499) scale(2.99733)"/><path d="m658.47 569.12 3.33 7.08-3.46-1.83-3.54 1.66z" style="fill:none;stroke:#000;stroke-width:1;stroke-linecap:butt;stroke-linejoin:miter;stroke-miterlimit:10;stroke-dasharray:none;stroke-opacity:1" transform="translate(1.499 1.499) scale(2.99733)"/><path d="M498 578h120v60H498Z" style="fill:#fff;fill-opacity:1;fill-rule:nonzero;stroke:none" transform="translate(1.499 1.499) scale(2.99733)"/><path d="M498 578h120v60H498Z" style="fill:none;stroke:#000;stroke-width:1;stroke-linecap:butt;stroke-linejoin:miter;stroke-miterlimit:10;stroke-dasharray:none;stroke-opacity:1" transform="translate(1.499 1.499) scale(2.99733)"/><text transform="translate(1503.534 1834.364) scale(2.99733)" style="font-variant:normal;font-weight:400;font-size:12px;font-family:Arimo;-inkscape-font-specification:Arimo;writing-mode:lr-tb;fill:#000;fill-opacity:1;fill-rule:nonzero;stroke:none"><tspan x="0 9.3339844 16.007812 22.681641 29.355469 33.351562 40.025391 43.359375 50.033203 53.367188 56.701172 63.375 69.375 72.708984 79.382812 83.378906 86.712891 90.046875 96.720703 103.39453 106.06055" y="0">Generate factor table</tspan></text><path d="M474 665v-42h17.63" style="fill:none;stroke:#000;stroke-width:1;stroke-linecap:butt;stroke-linejoin:miter;stroke-miterlimit:10;stroke-dasharray:none;stroke-opacity:1" transform="translate(1.499 1.499) scale(2.99733)"/><path d="m496.88 623-7 3.5 1.75-3.5-1.75-3.5z" style="fill:#000;fill-opacity:1;fill-rule:nonzero;stroke:none" transform="translate(1.499 1.499) scale(2.99733)"/><path d="m496.88 623-7 3.5 1.75-3.5-1.75-3.5z" style="fill:none;stroke:#000;stroke-width:1;stroke-linecap:butt;stroke-linejoin:miter;stroke-miterlimit:10;stroke-dasharray:none;stroke-opacity:1" transform="translate(1.499 1.499) scale(2.99733)"/><path d="M441.25 665h65.5a2.234 2.234 0 0 1 1.591.659 2.234 2.234 0 0 1 .659 1.591v10.5c0 .298-.057.585-.171.861a2.23 2.23 0 0 1-.488.73 2.23 2.23 0 0 1-.73.488 2.23 2.23 0 0 1-.861.171h-65.5a2.23 2.23 0 0 1-.861-.171 2.228 2.228 0 0 1-.73-.488 2.229 2.229 0 0 1-.488-.73 2.229 2.229 0 0 1-.171-.861v-10.5a2.234 2.234 0 0 1 .659-1.591c.21-.211.454-.374.73-.488a2.23 2.23 0 0 1 .861-.171Z" style="fill:#ff8;fill-opacity:1;fill-rule:nonzero;stroke:none" transform="translate(1.499 1.499) scale(2.99733)"/><path d="M441.25 665h65.5a2.234 2.234 0 0 1 1.591.659 2.234 2.234 0 0 1 .659 1.591v10.5c0 .298-.057.585-.171.861a2.23 2.23 0 0 1-.488.73 2.23 2.23 0 0 1-.73.488 2.23 2.23 0 0 1-.861.171h-65.5a2.23 2.23 0 0 1-.861-.171 2.228 2.228 0 0 1-.73-.488 2.229 2.229 0 0 1-.488-.73 2.229 2.229 0 0 1-.171-.861v-10.5a2.234 2.234 0 0 1 .659-1.591c.21-.211.454-.374.73-.488a2.23 2.23 0 0 1 .861-.171Z" style="fill:none;stroke:#36393d;stroke-width:1;stroke-linecap:butt;stroke-linejoin:miter;stroke-miterlimit:10;stroke-dasharray:none;stroke-opacity:1" transform="translate(1.499 1.499) scale(2.99733)"/><text transform="translate(1350.717 2029.19) scale(2.99733)" style="font-variant:normal;font-weight:400;font-size:12px;font-family:Arimo;-inkscape-font-specification:Arimo;writing-mode:lr-tb;fill:#000;fill-opacity:1;fill-rule:nonzero;stroke:none"><tspan x="0 8.0039062 10.669922 17.34375 20.677734 26.677734 33.351562 40.025391" y="0">Pin code</tspan></text><path d="M706 528V358.37" style="fill:none;stroke:#000;stroke-width:1;stroke-linecap:butt;stroke-linejoin:miter;stroke-miterlimit:10;stroke-dasharray:none;stroke-opacity:1" transform="translate(1.499 1.499) scale(2.99733)"/><path d="m706 353.12 3.5 7-3.5-1.75-3.5 1.75z" style="fill:#000;fill-opacity:1;fill-rule:nonzero;stroke:none" transform="translate(1.499 1.499) scale(2.99733)"/><path d="m706 353.12 3.5 7-3.5-1.75-3.5 1.75z" style="fill:none;stroke:#000;stroke-width:1;stroke-linecap:butt;stroke-linejoin:miter;stroke-miterlimit:10;stroke-dasharray:none;stroke-opacity:1" transform="translate(1.499 1.499) scale(2.99733)"/><path d="M611 528h190v40H611Z" style="fill:#fff;fill-opacity:1;fill-rule:nonzero;stroke:none" transform="translate(1.499 1.499) scale(2.99733)"/><path d="M611 528h190v40H611Z" style="fill:none;stroke:#000;stroke-width:1;stroke-linecap:butt;stroke-linejoin:miter;stroke-miterlimit:10;stroke-dasharray:none;stroke-opacity:1" transform="translate(1.499 1.499) scale(2.99733)"/><text transform="translate(1906.206 1654.525) scale(2.99733)" style="font-variant:normal;font-weight:400;font-size:12px;font-family:Arimo;-inkscape-font-specification:Arimo;writing-mode:lr-tb;fill:#000;fill-opacity:1;fill-rule:nonzero;stroke:none"><tspan x="0 8.0039062 16.007812 24.673828 32.677734 40.007812 46.681641 53.355469 62.021484 72.017578 80.021484 88.6875 95.361328 103.36523 112.03125 120.03516 126.70898 133.38281" y="0">PBDKF2_HMAC_SHA256</tspan></text><path d="M558 665v-20 13-13.63" style="fill:none;stroke:#000;stroke-width:1;stroke-linecap:butt;stroke-linejoin:miter;stroke-miterlimit:10;stroke-dasharray:none;stroke-opacity:1" transform="translate(1.499 1.499) scale(2.99733)"/><path d="m558 639.12 3.5 7-3.5-1.75-3.5 1.75z" style="fill:#000;fill-opacity:1;fill-rule:nonzero;stroke:none" transform="translate(1.499 1.499) scale(2.99733)"/><path d="m558 639.12 3.5 7-3.5-1.75-3.5 1.75zm35 33.38h113v-98.13" style="fill:none;stroke:#000;stroke-width:1;stroke-linecap:butt;stroke-linejoin:miter;stroke-miterlimit:10;stroke-dasharray:none;stroke-opacity:1" transform="translate(1.499 1.499) scale(2.99733)"/><path d="m706 569.12 3.5 7-3.5-1.75-3.5 1.75z" style="fill:#000;fill-opacity:1;fill-rule:nonzero;stroke:none" transform="translate(1.499 1.499) scale(2.99733)"/><path d="m706 569.12 3.5 7-3.5-1.75-3.5 1.75z" style="fill:none;stroke:#000;stroke-width:1;stroke-linecap:butt;stroke-linejoin:miter;stroke-miterlimit:10;stroke-dasharray:none;stroke-opacity:1" transform="translate(1.499 1.499) scale(2.99733)"/><path d="M525.25 665h65.5a2.234 2.234 0 0 1 1.591.659 2.244 2.244 0 0 1 .659 1.591v10.5c0 .298-.057.585-.171.861a2.23 2.23 0 0 1-.488.73 2.228 2.228 0 0 1-.73.488 2.23 2.23 0 0 1-.861.171h-65.5c-.298 0-.585-.057-.861-.171a2.227 2.227 0 0 1-.73-.488 2.23 2.23 0 0 1-.488-.73 2.227 2.227 0 0 1-.171-.861v-10.5a2.234 2.234 0 0 1 .659-1.591c.21-.211.454-.374.73-.488a2.23 2.23 0 0 1 .861-.171Z" style="fill:#ff8;fill-opacity:1;fill-rule:nonzero;stroke:none" transform="translate(1.499 1.499) scale(2.99733)"/><path d="M525.25 665h65.5a2.234 2.234 0 0 1 1.591.659 2.244 2.244 0 0 1 .659 1.591v10.5c0 .298-.057.585-.171.861a2.23 2.23 0 0 1-.488.73 2.228 2.228 0 0 1-.73.488 2.23 2.23 0 0 1-.861.171h-65.5c-.298 0-.585-.057-.861-.171a2.227 2.227 0 0 1-.73-.488 2.23 2.23 0 0 1-.488-.73 2.227 2.227 0 0 1-.171-.861v-10.5a2.234 2.234 0 0 1 .659-1.591c.21-.211.454-.374.73-.488a2.23 2.23 0 0 1 .861-.171Z" style="fill:none;stroke:#36393d;stroke-width:1;stroke-linecap:butt;stroke-linejoin:miter;stroke-miterlimit:10;stroke-dasharray:none;stroke-opacity:1" transform="translate(1.499 1.499) scale(2.99733)"/><text transform="translate(1593.548 2029.19) scale(2.99733)" style="font-variant:normal;font-weight:400;font-size:12px;font-family:Arimo;-inkscape-font-specification:Arimo;writing-mode:lr-tb;fill:#000;fill-opacity:1;fill-rule:nonzero;stroke:none"><tspan x="0 8.0039062 14.677734 20.677734 26.677734 35.34375 42.017578 46.013672" y="0">Password</tspan></text><path d="M701 292v-44H346v-23h-14.63" style="fill:none;stroke:#000;stroke-width:1;stroke-linecap:butt;stroke-linejoin:miter;stroke-miterlimit:10;stroke-dasharray:none;stroke-opacity:1" transform="translate(1.499 1.499) scale(2.99733)"/><path d="m326.12 225 7-3.5-1.75 3.5 1.75 3.5z" style="fill:#000;fill-opacity:1;fill-rule:nonzero;stroke:none" transform="translate(1.499 1.499) scale(2.99733)"/><path d="m326.12 225 7-3.5-1.75 3.5 1.75 3.5zM701 292v-44H186v-23h-19.63" style="fill:none;stroke:#000;stroke-width:1;stroke-linecap:butt;stroke-linejoin:miter;stroke-miterlimit:10;stroke-dasharray:none;stroke-opacity:1" transform="translate(1.499 1.499) scale(2.99733)"/><path d="m161.12 225 7-3.5-1.75 3.5 1.75 3.5z" style="fill:#000;fill-opacity:1;fill-rule:nonzero;stroke:none" transform="translate(1.499 1.499) scale(2.99733)"/><path d="m161.12 225 7-3.5-1.75 3.5 1.75 3.5zM646 322h-61V103h-54.63" style="fill:none;stroke:#000;stroke-width:1;stroke-linecap:butt;stroke-linejoin:miter;stroke-miterlimit:10;stroke-dasharray:none;stroke-opacity:1" transform="translate(1.499 1.499) scale(2.99733)"/><path d="m525.12 103 7-3.5-1.75 3.5 1.75 3.5z" style="fill:#000;fill-opacity:1;fill-rule:nonzero;stroke:none" transform="translate(1.499 1.499) scale(2.99733)"/><path d="m525.12 103 7-3.5-1.75 3.5 1.75 3.5z" style="fill:none;stroke:#000;stroke-width:1;stroke-linecap:butt;stroke-linejoin:miter;stroke-miterlimit:10;stroke-dasharray:none;stroke-opacity:1" transform="translate(1.499 1.499) scale(2.99733)"/><path d="M646 322h-60V8H174v60l-.18 3.64" style="fill:none;stroke:#000;stroke-width:1;stroke-linecap:butt;stroke-linejoin:miter;stroke-miterlimit:10;stroke-dasharray:none;stroke-opacity:1" transform="translate(1.499 1.499) scale(2.99733)"/><path d="m173.56 76.88-3.15-7.16 3.41 1.92 3.58-1.57z" style="fill:#000;fill-opacity:1;fill-rule:nonzero;stroke:none" transform="translate(1.499 1.499) scale(2.99733)"/><path d="m173.56 76.88-3.15-7.16 3.41 1.92 3.58-1.57zM646 322h-60V8H338.5v63.63" style="fill:none;stroke:#000;stroke-width:1;stroke-linecap:butt;stroke-linejoin:miter;stroke-miterlimit:10;stroke-dasharray:none;stroke-opacity:1" transform="translate(1.499 1.499) scale(2.99733)"/><path d="m338.5 76.88-3.5-7 3.5 1.75 3.5-1.75z" style="fill:#000;fill-opacity:1;fill-rule:nonzero;stroke:none" transform="translate(1.499 1.499) scale(2.99733)"/><path d="m338.5 76.88-3.5-7 3.5 1.75 3.5-1.75z" style="fill:none;stroke:#000;stroke-width:1;stroke-linecap:butt;stroke-linejoin:miter;stroke-miterlimit:10;stroke-dasharray:none;stroke-opacity:1" transform="translate(1.499 1.499) scale(2.99733)"/><path d="M655 292h102a8.984 8.984 0 0 1 5 1.517 8.98 8.98 0 0 1 3.315 4.039A8.98 8.98 0 0 1 766 301v42a8.975 8.975 0 0 1-.685 3.444 8.977 8.977 0 0 1-1.951 2.92 8.983 8.983 0 0 1-4.608 2.463A8.981 8.981 0 0 1 757 352H655a8.982 8.982 0 0 1-5-1.517 8.978 8.978 0 0 1-2.483-2.483 8.976 8.976 0 0 1-1.344-3.244A8.978 8.978 0 0 1 646 343v-42a8.977 8.977 0 0 1 .685-3.444 8.978 8.978 0 0 1 1.951-2.92 8.98 8.98 0 0 1 4.608-2.463A8.98 8.98 0 0 1 655 292Z" style="fill:#ff8;fill-opacity:1;fill-rule:nonzero;stroke:none" transform="translate(1.499 1.499) scale(2.99733)"/><path d="M655 292h102a8.984 8.984 0 0 1 5 1.517 8.98 8.98 0 0 1 3.315 4.039A8.98 8.98 0 0 1 766 301v42a8.975 8.975 0 0 1-.685 3.444 8.977 8.977 0 0 1-1.951 2.92 8.983 8.983 0 0 1-4.608 2.463A8.981 8.981 0 0 1 757 352H655a8.982 8.982 0 0 1-5-1.517 8.978 8.978 0 0 1-2.483-2.483 8.976 8.976 0 0 1-1.344-3.244A8.978 8.978 0 0 1 646 343v-42a8.977 8.977 0 0 1 .685-3.444 8.978 8.978 0 0 1 1.951-2.92 8.98 8.98 0 0 1 4.608-2.463A8.98 8.98 0 0 1 655 292Z" style="fill:none;stroke:#36393d;stroke-width:1;stroke-linecap:butt;stroke-linejoin:miter;stroke-miterlimit:10;stroke-dasharray:none;stroke-opacity:1" transform="translate(1.499 1.499) scale(2.99733)"/><text transform="translate(2030.174 935.166) scale(2.99733)" style="font-variant:normal;font-weight:400;font-size:12px;font-family:Arimo;-inkscape-font-specification:Arimo;writing-mode:lr-tb;fill:#000;fill-opacity:1;fill-rule:nonzero;stroke:none"><tspan x="0 8.0039062 14.677734 20.677734" y="0">Keys</tspan></text><text transform="translate(2110.118 935.166) scale(2.99733)" style="font-variant:normal;font-weight:400;font-size:12px;font-family:Arimo;-inkscape-font-specification:Arimo;writing-mode:lr-tb;fill:#000;fill-opacity:1;fill-rule:nonzero;stroke:none"><tspan x="0 3.3339844 7.3300781 14.003906 20.677734" y="0">tream</tspan></text><text transform="translate(1982.123 977.129) scale(2.99733)" style="font-variant:normal;font-weight:400;font-size:12px;font-family:Arimo;-inkscape-font-specification:Arimo;writing-mode:lr-tb;fill:#000;fill-opacity:1;fill-rule:nonzero;stroke:none"><tspan x="0 8.0039062 10.669922 16.669922 23.34375 26.677734 33.351562 40.025391 46.699219 53.373047 60.046875 66.720703 72.720703 76.054688 82.728516" y="0">Size depends on</tspan></text><text transform="translate(1963.156 1022.089) scale(2.99733)" style="font-variant:normal;font-weight:400;font-size:12px;font-family:Arimo;-inkscape-font-specification:Arimo;writing-mode:lr-tb;fill:#000;fill-opacity:1;fill-rule:nonzero;stroke:none"><tspan x="0 2.6660156 9.3398438 16.013672 22.6875 26.021484 32.695312 36.029297 42.703125 46.037109 49.371094 57.375 64.048828 70.048828 76.048828 84.714844 91.388672 95.384766" y="0">length of Password</tspan></text><path d="m140.5 208 19.5 17-19.5 17-19.5-17Z" style="fill:#fff;fill-opacity:1;fill-rule:nonzero;stroke:none" transform="translate(1.499 1.499) scale(2.99733)"/><path d="m140.5 208 19.5 17-19.5 17-19.5-17Z" style="fill:none;stroke:#000;stroke-width:1;stroke-linecap:butt;stroke-linejoin:miter;stroke-miterlimit:10;stroke-dasharray:none;stroke-opacity:1" transform="translate(1.499 1.499) scale(2.99733)"/><text transform="translate(382.112 686.388) scale(2.99733)" style="font-variant:normal;font-weight:400;font-size:12px;font-family:Arimo;-inkscape-font-specification:Arimo;writing-mode:lr-tb;fill:#000;fill-opacity:1;fill-rule:nonzero;stroke:none"><tspan x="0 8.0039062 17.337891" y="0">XOR</tspan></text><path d="M305.5 242v30l.39 23.63" style="fill:none;stroke:#000;stroke-width:1;stroke-linecap:butt;stroke-linejoin:miter;stroke-miterlimit:10;stroke-dasharray:none;stroke-opacity:1" transform="translate(1.499 1.499) scale(2.99733)"/><path d="m305.98 300.88-3.61-6.94 3.52 1.69 3.47-1.81z" style="fill:#000;fill-opacity:1;fill-rule:nonzero;stroke:none" transform="translate(1.499 1.499) scale(2.99733)"/><path d="m305.98 300.88-3.61-6.94 3.52 1.69 3.47-1.81z" style="fill:none;stroke:#000;stroke-width:1;stroke-linecap:butt;stroke-linejoin:miter;stroke-miterlimit:10;stroke-dasharray:none;stroke-opacity:1" transform="translate(1.499 1.499) scale(2.99733)"/><path d="m305.5 208 19.5 17-19.5 17-19.5-17Z" style="fill:#fff;fill-opacity:1;fill-rule:nonzero;stroke:none" transform="translate(1.499 1.499) scale(2.99733)"/><path d="m305.5 208 19.5 17-19.5 17-19.5-17Z" style="fill:none;stroke:#000;stroke-width:1;stroke-linecap:butt;stroke-linejoin:miter;stroke-miterlimit:10;stroke-dasharray:none;stroke-opacity:1" transform="translate(1.499 1.499) scale(2.99733)"/><text transform="translate(876.671 686.388) scale(2.99733)" style="font-variant:normal;font-weight:400;font-size:12px;font-family:Arimo;-inkscape-font-specification:Arimo;writing-mode:lr-tb;fill:#000;fill-opacity:1;fill-rule:nonzero;stroke:none"><tspan x="0 8.0039062 17.337891" y="0">XOR</tspan></text><path d="M266 648h-37.7v57h-31.43" style="fill:none;stroke:#000;stroke-width:1;stroke-linecap:butt;stroke-linejoin:miter;stroke-miterlimit:10;stroke-dasharray:none;stroke-opacity:1" transform="translate(1.499 1.499) scale(2.99733)"/><path d="m191.62 705 7-3.5-1.75 3.5 1.75 3.5z" style="fill:#000;fill-opacity:1;fill-rule:nonzero;stroke:none" transform="translate(1.499 1.499) scale(2.99733)"/><path d="m191.62 705 7-3.5-1.75 3.5 1.75 3.5z" style="fill:none;stroke:#000;stroke-width:1;stroke-linecap:butt;stroke-linejoin:miter;stroke-miterlimit:10;stroke-dasharray:none;stroke-opacity:1" transform="translate(1.499 1.499) scale(2.99733)"/><path d="M266 628h120v40H266Z" style="fill:#cdeb8b;fill-opacity:1;fill-rule:nonzero;stroke:none" transform="translate(1.499 1.499) scale(2.99733)"/><path d="M266 628h120v40H266Z" style="fill:none;stroke:#36393d;stroke-width:1;stroke-linecap:butt;stroke-linejoin:miter;stroke-miterlimit:10;stroke-dasharray:none;stroke-opacity:1" transform="translate(1.499 1.499) scale(2.99733)"/><text transform="translate(814.196 1954.257) scale(2.99733)" style="font-variant:normal;font-weight:400;font-size:12px;font-family:Arimo;-inkscape-font-specification:Arimo;writing-mode:lr-tb;fill:#000;fill-opacity:1;fill-rule:nonzero;stroke:none"><tspan x="0 9.3339844 16.007812 22.681641 29.355469 33.351562 40.025391 43.359375 50.033203 53.367188 59.367188 66.041016 72.041016 78.041016 81.375 85.371094 92.044922 98.71875" y="0">Generate keystream</tspan></text><path d="M160.5 548h151c.597 0 1.17.114 1.722.343a4.457 4.457 0 0 1 1.46.975c.422.422.747.909.975 1.46.229.551.343 1.125.343 1.722v21c0 .597-.114 1.17-.343 1.722a4.458 4.458 0 0 1-.975 1.46 4.457 4.457 0 0 1-1.46.975 4.458 4.458 0 0 1-1.722.343h-151c-.597 0-1.17-.114-1.722-.343a4.457 4.457 0 0 1-1.46-.975 4.458 4.458 0 0 1-.975-1.46A4.457 4.457 0 0 1 156 573.5v-21c0-.597.114-1.17.343-1.722a4.456 4.456 0 0 1 .975-1.46 4.457 4.457 0 0 1 1.46-.975A4.458 4.458 0 0 1 160.5 548Z" style="fill:#60a917;fill-opacity:1;fill-rule:nonzero;stroke:none" transform="translate(1.499 1.499) scale(2.99733)"/><path d="M160.5 548h151c.597 0 1.17.114 1.722.343a4.457 4.457 0 0 1 1.46.975c.422.422.747.909.975 1.46.229.551.343 1.125.343 1.722v21c0 .597-.114 1.17-.343 1.722a4.458 4.458 0 0 1-.975 1.46 4.457 4.457 0 0 1-1.46.975 4.458 4.458 0 0 1-1.722.343h-151c-.597 0-1.17-.114-1.722-.343a4.457 4.457 0 0 1-1.46-.975 4.458 4.458 0 0 1-.975-1.46A4.457 4.457 0 0 1 156 573.5v-21c0-.597.114-1.17.343-1.722a4.456 4.456 0 0 1 .975-1.46 4.457 4.457 0 0 1 1.46-.975A4.458 4.458 0 0 1 160.5 548Z" style="fill:none;stroke:#2d7600;stroke-width:1;stroke-linecap:butt;stroke-linejoin:miter;stroke-miterlimit:10;stroke-dasharray:none;stroke-opacity:1" transform="translate(1.499 1.499) scale(2.99733)"/><text transform="translate(517.46 1678.503) scale(2.99733)" style="font-variant:normal;font-weight:400;font-size:12px;font-family:Arimo;-inkscape-font-specification:Arimo;writing-mode:lr-tb;fill:#fff;fill-opacity:1;fill-rule:nonzero;stroke:none"><tspan x="0 8.0039062 14.677734 20.677734 24.673828 30.673828 37.347656 40.681641 43.347656 50.021484 56.695312 60.029297 66.703125 69.369141 76.042969 82.716797 86.712891 89.378906 92.712891 99.386719 109.38281 112.7168 116.05078 122.72461" y="0">Encryption algorithm for</tspan></text><text transform="translate(645.409 1723.463) scale(2.99733)" style="font-variant:normal;font-weight:400;font-size:12px;font-family:Arimo;-inkscape-font-specification:Arimo;writing-mode:lr-tb;fill:#fff;fill-opacity:1;fill-rule:nonzero;stroke:none"><tspan x="0 6 12.673828 16.007812 19.341797 22.007812 28.681641 35.355469" y="0">settings</tspan></text><path d="M151.5 705H86v87.5h13.63" style="fill:none;stroke:#000;stroke-width:1;stroke-linecap:butt;stroke-linejoin:miter;stroke-miterlimit:10;stroke-dasharray:none;stroke-opacity:1" transform="translate(1.499 1.499) scale(2.99733)"/><path d="m104.88 792.5-7 3.5 1.75-3.5-1.75-3.5z" style="fill:#000;fill-opacity:1;fill-rule:nonzero;stroke:none" transform="translate(1.499 1.499) scale(2.99733)"/><path d="m104.88 792.5-7 3.5 1.75-3.5-1.75-3.5z" style="fill:none;stroke:#000;stroke-width:1;stroke-linecap:butt;stroke-linejoin:miter;stroke-miterlimit:10;stroke-dasharray:none;stroke-opacity:1" transform="translate(1.499 1.499) scale(2.99733)"/><path d="m171 688 19.5 17-19.5 17-19.5-17z" style="fill:#fff;fill-opacity:1;fill-rule:nonzero;stroke:none" transform="translate(1.499 1.499) scale(2.99733)"/><path d="m171 688 19.5 17-19.5 17-19.5-17z" style="fill:none;stroke:#000;stroke-width:1;stroke-linecap:butt;stroke-linejoin:miter;stroke-miterlimit:10;stroke-dasharray:none;stroke-opacity:1" transform="translate(1.499 1.499) scale(2.99733)"/><text transform="translate(475.03 2125.105) scale(2.99733)" style="font-variant:normal;font-weight:400;font-size:12px;font-family:Arimo;-inkscape-font-specification:Arimo;writing-mode:lr-tb;fill:#000;fill-opacity:1;fill-rule:nonzero;stroke:none"><tspan x="0 8.0039062 17.337891" y="0">XOR</tspan></text><path d="M121 643h50v38.63" style="fill:none;stroke:#000;stroke-width:1;stroke-linecap:butt;stroke-linejoin:miter;stroke-miterlimit:10;stroke-dasharray:none;stroke-opacity:1" transform="translate(1.499 1.499) scale(2.99733)"/><path d="m171 686.88-3.5-7 3.5 1.75 3.5-1.75z" style="fill:#000;fill-opacity:1;fill-rule:nonzero;stroke:none" transform="translate(1.499 1.499) scale(2.99733)"/><path d="m171 686.88-3.5-7 3.5 1.75 3.5-1.75z" style="fill:none;stroke:#000;stroke-width:1;stroke-linecap:butt;stroke-linejoin:miter;stroke-miterlimit:10;stroke-dasharray:none;stroke-opacity:1" transform="translate(1.499 1.499) scale(2.99733)"/><path d="M1 613h120v60H1Z" style="fill:#fff;fill-opacity:1;fill-rule:nonzero;stroke:none" transform="translate(1.499 1.499) scale(2.99733)"/><path d="M1 613h120v60H1Z" style="fill:none;stroke:#000;stroke-width:1;stroke-linecap:butt;stroke-linejoin:miter;stroke-miterlimit:10;stroke-dasharray:none;stroke-opacity:1" transform="translate(1.499 1.499) scale(2.99733)"/><text transform="translate(6.884 1918.29) scale(2.99733)" style="font-variant:normal;font-weight:400;font-size:12px;font-family:Arimo;-inkscape-font-specification:Arimo;writing-mode:lr-tb;fill:#000;fill-opacity:1;fill-rule:nonzero;stroke:none"><tspan x="0 8.0039062 14.003906 17.337891 21.333984 28.007812 34.007812 37.341797 40.675781 44.009766 50.683594 57.357422 60.691406 67.365234 71.361328 78.035156 84.708984 91.382812 94.716797 101.39062 107.39062 110.72461" y="0">Extract the green byte</tspan></text><text transform="translate(60.883 1963.25) scale(2.99733)" style="font-variant:normal;font-weight:400;font-size:12px;font-family:Arimo;-inkscape-font-specification:Arimo;writing-mode:lr-tb;fill:#000;fill-opacity:1;fill-rule:nonzero;stroke:none"><tspan x="0 3.3339844 7.3300781 14.003906 24 27.333984 34.007812 40.681641 46.681641 53.355469 56.689453 63.363281 66.029297 72.029297 78.703125" y="0">from each pixel</tspan></text><path d="M306 792.5h30l23.98-.08" style="fill:none;stroke:#000;stroke-width:1;stroke-linecap:butt;stroke-linejoin:miter;stroke-miterlimit:10;stroke-dasharray:none;stroke-opacity:1" transform="translate(1.499 1.499) scale(2.99733)"/><path d="m365.23 792.4-6.99 3.53 1.74-3.51-1.76-3.49z" style="fill:#000;fill-opacity:1;fill-rule:nonzero;stroke:none" transform="translate(1.499 1.499) scale(2.99733)"/><path d="m365.23 792.4-6.99 3.53 1.74-3.51-1.76-3.49z" style="fill:none;stroke:#000;stroke-width:1;stroke-linecap:butt;stroke-linejoin:miter;stroke-miterlimit:10;stroke-dasharray:none;stroke-opacity:1" transform="translate(1.499 1.499) scale(2.99733)"/><path d="M106 737h200v111H106Z" style="fill:#fff;fill-opacity:1;fill-rule:nonzero;stroke:none" transform="translate(1.499 1.499) scale(2.99733)"/><path d="M106 737h200v111H106Z" style="fill:none;stroke:#000;stroke-width:1;stroke-linecap:butt;stroke-linejoin:miter;stroke-miterlimit:10;stroke-dasharray:none;stroke-opacity:1" transform="translate(1.499 1.499) scale(2.99733)"/><text transform="translate(445.525 2304.945) scale(2.99733)" style="font-variant:normal;font-weight:400;font-size:12px;font-family:Arimo;-inkscape-font-specification:Arimo;writing-mode:lr-tb;fill:#000;fill-opacity:1;fill-rule:nonzero;stroke:none"><tspan x="0 8.6660156 15.339844 21.339844 25.335938 31.335938 38.009766 41.34375 44.677734 50.677734 57.351562 60.685547 64.019531 66.685547 73.359375 80.033203 86.033203 89.367188 98.033203 106.03711" y="0">Decrypt settings CBC</tspan></text><text transform="translate(446.508 2346.907) scale(2.99733)" style="font-variant:normal;font-weight:400;font-size:12px;font-family:Arimo;-inkscape-font-specification:Arimo;writing-mode:lr-tb;fill:#000;fill-opacity:1;fill-rule:nonzero;stroke:none"><tspan x="0 3.9960938 12 20.003906 28.007812 34.681641 41.355469 48.029297 51.363281 60.029297 68.695312 75.369141 78.703125 85.376953 94.042969 102.04688 110.05078" y="0">(AES256/RC2/3DES)</tspan></text><text transform="translate(404.077 2388.87) scale(2.99733)" style="font-variant:normal;font-weight:400;font-size:12px;font-family:Arimo;-inkscape-font-specification:Arimo;writing-mode:lr-tb;fill:#000;fill-opacity:1;fill-rule:nonzero;stroke:none"><tspan x="0 3.3339844 11.337891 14.671875 21.345703 28.019531 32.015625 34.681641 40.681641 47.355469 54.029297 57.363281 60.697266 64.693359 71.367188 81.363281 84.697266 92.027344 100.03125 103.36523 110.37305 113.70703 123.04102 129.71484 136.38867" y="0">IV derived from TK + Gaps</tspan></text><text transform="translate(376.54 2433.83) scale(2.99733)" style="font-variant:normal;font-weight:400;font-size:12px;font-family:Arimo;-inkscape-font-specification:Arimo;writing-mode:lr-tb;fill:#000;fill-opacity:1;fill-rule:nonzero;stroke:none"><tspan x="0 8.0039062 14.677734 20.677734 24.011719 30.685547 37.359375 41.355469 47.355469 50.021484 56.695312 63.369141 66.703125 70.037109 74.033203 80.707031 90.703125 94.037109 100.71094 104.04492 110.71875 117.39258 121.38867 128.0625 134.0625 140.73633 147.41016 154.08398" y="0">Key dervide from a hardcoded</tspan></text><text transform="translate(425.714 2475.792) scale(2.99733)" style="font-variant:normal;font-weight:400;font-size:12px;font-family:Arimo;-inkscape-font-specification:Arimo;writing-mode:lr-tb;fill:#000;fill-opacity:1;fill-rule:nonzero;stroke:none"><tspan x="0 6 12.673828 19.347656 26.021484 28.6875 35.361328 38.695312 45.580078 48.246094 58.242188 64.916016 72.919922 79.59375 85.59375 88.927734 95.935547 99.269531 108.60352 115.27734 121.95117" y="0">couple TimeKey + Gaps</tspan></text><path d="M366 786h350v20H366Z" style="fill:#fff2cc;fill-opacity:1;fill-rule:nonzero;stroke:none" transform="translate(1.499 1.499) scale(2.99733)"/><path d="M366 786h350v20H366Z" style="fill:none;stroke:#d6b656;stroke-width:1;stroke-linecap:butt;stroke-linejoin:miter;stroke-miterlimit:10;stroke-dasharray:none;stroke-opacity:1" transform="translate(1.499 1.499) scale(2.99733)"/><text transform="translate(1103.016 2397.862) scale(2.99733)" style="font-variant:normal;font-weight:400;font-size:12px;font-family:Arimo;-inkscape-font-specification:Arimo;writing-mode:lr-tb;fill:#000;fill-opacity:1;fill-rule:nonzero;stroke:none"><tspan x="0 8.0039062 14.677734 18.011719 21.345703 24.011719 30.685547 37.359375 43.359375 46.693359 55.359375 58.025391 61.359375 68.033203 71.367188 78.041016 84.714844 90.714844 94.710938 100.71094 107.38477 110.71875 113.38477 120.05859 126.73242 130.06641 136.74023 139.40625 146.08008 152.75391 156.75 159.41602 162.75 169.42383 179.41992 185.41992 188.75391 192.08789 198.76172 202.0957 208.76953 214.76953 221.44336 224.77734 228.11133 234.78516 238.78125 242.11523 249.22852 256.55859 265.22461 268.55859 276.5625 284.56641 291.24023 294.57422 301.24805 307.92188 314.5957 317.92969 325.93359 333.9375" y="0">Settings with encryption algorithms to use for ATD,AK1 and AK2</tspan></text><path d="M56 393V103h13.63" style="fill:none;stroke:#000;stroke-width:1;stroke-linecap:butt;stroke-linejoin:miter;stroke-miterlimit:10;stroke-dasharray:none;stroke-opacity:1" transform="translate(1.499 1.499) scale(2.99733)"/><path d="m74.88 103-7 3.5 1.75-3.5-1.75-3.5z" style="fill:#000;fill-opacity:1;fill-rule:nonzero;stroke:none" transform="translate(1.499 1.499) scale(2.99733)"/><path d="m74.88 103-7 3.5 1.75-3.5-1.75-3.5z" style="fill:none;stroke:#000;stroke-width:1;stroke-linecap:butt;stroke-linejoin:miter;stroke-miterlimit:10;stroke-dasharray:none;stroke-opacity:1" transform="translate(1.499 1.499) scale(2.99733)"/><path d="M56 393V58h170v45h8.63" style="fill:none;stroke:#000;stroke-width:1;stroke-linecap:butt;stroke-linejoin:miter;stroke-miterlimit:10;stroke-dasharray:none;stroke-opacity:1" transform="translate(1.499 1.499) scale(2.99733)"/><path d="m239.88 103-7 3.5 1.75-3.5-1.75-3.5z" style="fill:#000;fill-opacity:1;fill-rule:nonzero;stroke:none" transform="translate(1.499 1.499) scale(2.99733)"/><path d="m239.88 103-7 3.5 1.75-3.5-1.75-3.5z" style="fill:none;stroke:#000;stroke-width:1;stroke-linecap:butt;stroke-linejoin:miter;stroke-miterlimit:10;stroke-dasharray:none;stroke-opacity:1" transform="translate(1.499 1.499) scale(2.99733)"/><path d="M56 393V58h320v45h11.63" style="fill:none;stroke:#000;stroke-width:1;stroke-linecap:butt;stroke-linejoin:miter;stroke-miterlimit:10;stroke-dasharray:none;stroke-opacity:1" transform="translate(1.499 1.499) scale(2.99733)"/><path d="m392.88 103-7 3.5 1.75-3.5-1.75-3.5z" style="fill:#000;fill-opacity:1;fill-rule:nonzero;stroke:none" transform="translate(1.499 1.499) scale(2.99733)"/><path d="m392.88 103-7 3.5 1.75-3.5-1.75-3.5z" style="fill:none;stroke:#000;stroke-width:1;stroke-linecap:butt;stroke-linejoin:miter;stroke-miterlimit:10;stroke-dasharray:none;stroke-opacity:1" transform="translate(1.499 1.499) scale(2.99733)"/><path d="M5.5 393h121c.597 0 1.17.114 1.722.343a4.457 4.457 0 0 1 1.46.975c.422.422.747.909.975 1.46.229.551.343 1.125.343 1.722v21c0 .597-.114 1.17-.343 1.722a4.458 4.458 0 0 1-.975 1.46 4.457 4.457 0 0 1-1.46.975 4.458 4.458 0 0 1-1.722.343H5.5c-.597 0-1.17-.114-1.722-.343a4.457 4.457 0 0 1-1.46-.975 4.458 4.458 0 0 1-.975-1.46A4.457 4.457 0 0 1 1 418.5v-21c0-.597.114-1.17.343-1.722a4.457 4.457 0 0 1 .975-1.46 4.457 4.457 0 0 1 1.46-.976A4.458 4.458 0 0 1 5.5 393Z" style="fill:#cdeb8b;fill-opacity:1;fill-rule:nonzero;stroke:none" transform="translate(1.499 1.499) scale(2.99733)"/><path d="M5.5 393h121c.597 0 1.17.114 1.722.343a4.457 4.457 0 0 1 1.46.975c.422.422.747.909.975 1.46.229.551.343 1.125.343 1.722v21c0 .597-.114 1.17-.343 1.722a4.458 4.458 0 0 1-.975 1.46 4.457 4.457 0 0 1-1.46.975 4.458 4.458 0 0 1-1.722.343H5.5c-.597 0-1.17-.114-1.722-.343a4.457 4.457 0 0 1-1.46-.975 4.458 4.458 0 0 1-.975-1.46A4.457 4.457 0 0 1 1 418.5v-21c0-.597.114-1.17.343-1.722a4.457 4.457 0 0 1 .975-1.46 4.457 4.457 0 0 1 1.46-.976A4.458 4.458 0 0 1 5.5 393Z" style="fill:none;stroke:#36393d;stroke-width:1;stroke-linecap:butt;stroke-linejoin:miter;stroke-miterlimit:10;stroke-dasharray:none;stroke-opacity:1" transform="translate(1.499 1.499) scale(2.99733)"/><text transform="translate(8.992 1219.912) scale(2.99733)" style="font-variant:normal;font-weight:400;font-size:12px;font-family:Arimo;-inkscape-font-specification:Arimo;writing-mode:lr-tb;fill:#000;fill-opacity:1;fill-rule:nonzero;stroke:none"><tspan x="0 8.6660156 15.339844 19.335938 22.001953 28.001953 34.675781 38.009766 44.683594 51.357422 57.357422 61.353516 67.353516 74.027344 77.361328 80.027344 86.701172 93.375 96.708984 102.70898 109.38281" y="0">Derive decryption key</tspan></text><text transform="translate(8.992 1261.875) scale(2.99733)" style="font-variant:normal;font-weight:400;font-size:12px;font-family:Arimo;-inkscape-font-specification:Arimo;writing-mode:lr-tb;fill:#000;fill-opacity:1;fill-rule:nonzero;stroke:none"><tspan x="0 3.9960938 12 18.673828" y="0">(K0)</tspan></text><text transform="translate(85.892 647.423) scale(2.99733)" style="font-variant:normal;font-weight:400;font-size:12px;font-family:Arimo;-inkscape-font-specification:Arimo;writing-mode:lr-tb;fill:#000;fill-opacity:1;fill-rule:nonzero;stroke:none"><tspan x="0 8.0039062" y="0">K0</tspan></text><text transform="translate(1762.428 455.594) scale(2.99733)" style="font-variant:normal;font-weight:400;font-size:12px;font-family:Arimo;-inkscape-font-specification:Arimo;writing-mode:lr-tb;fill:#000;fill-opacity:1;fill-rule:nonzero;stroke:none"><tspan x="0 7.3300781 9.9960938 13.992188 19.992188 23.326172 26.660156 33.333984 39.333984 42.667969 49.341797 55.341797 58.675781 65.349609 71.349609 78.023438 84.697266 88.03125 94.705078 100.70508 104.03906 107.37305" y="0">First bytes used as IV</tspan></text><path d="M758.5 28h105a7.482 7.482 0 0 1 4.167 1.264 7.484 7.484 0 0 1 2.762 3.366A7.49 7.49 0 0 1 871 35.5v35a7.487 7.487 0 0 1-1.264 4.167 7.48 7.48 0 0 1-3.366 2.762 7.483 7.483 0 0 1-2.87.571h-105a7.482 7.482 0 0 1-4.167-1.264 7.48 7.48 0 0 1-2.762-3.366A7.485 7.485 0 0 1 751 70.5v-35a7.48 7.48 0 0 1 1.264-4.167 7.485 7.485 0 0 1 3.366-2.762A7.483 7.483 0 0 1 758.5 28Z" style="fill:#ff8;fill-opacity:1;fill-rule:nonzero;stroke:none" transform="translate(1.499 1.499) scale(2.99733)"/><path d="M758.5 28h105a7.482 7.482 0 0 1 4.167 1.264 7.484 7.484 0 0 1 2.762 3.366A7.49 7.49 0 0 1 871 35.5v35a7.487 7.487 0 0 1-1.264 4.167 7.48 7.48 0 0 1-3.366 2.762 7.483 7.483 0 0 1-2.87.571h-105a7.482 7.482 0 0 1-4.167-1.264 7.48 7.48 0 0 1-2.762-3.366A7.485 7.485 0 0 1 751 70.5v-35a7.48 7.48 0 0 1 1.264-4.167 7.485 7.485 0 0 1 3.366-2.762A7.483 7.483 0 0 1 758.5 28Z" style="fill:none;stroke:#36393d;stroke-width:1;stroke-linecap:butt;stroke-linejoin:miter;stroke-miterlimit:10;stroke-dasharray:none;stroke-opacity:1" transform="translate(1.499 1.499) scale(2.99733)"/><text transform="translate(2301.854 128.885) scale(2.99733)" style="font-variant:normal;font-weight:400;font-size:12px;font-family:Arimo;-inkscape-font-specification:Arimo;writing-mode:lr-tb;fill:#000;fill-opacity:1;fill-rule:nonzero;stroke:none"><tspan x="0 8.6660156 14.666016 21.339844 25.335938 29.332031 36.005859 42.679688 49.353516 56.027344 62.701172 69.375 76.048828 82.722656" y="0">User-dependant</tspan></text><text transform="translate(2313.89 170.848) scale(2.99733)" style="font-variant:normal;font-weight:400;font-size:12px;font-family:Arimo;-inkscape-font-specification:Arimo;writing-mode:lr-tb;fill:#000;fill-opacity:1;fill-rule:nonzero;stroke:none"><tspan x="0 3.9960938 10.669922 17.34375 23.34375 30.017578 36.691406 45.357422 52.03125 56.027344 59.361328 65.361328 72.035156" y="0">(unknown) key</tspan></text><text transform="translate(2366.858 215.808) scale(2.99733)" style="font-variant:normal;font-weight:400;font-size:12px;font-family:Arimo;-inkscape-font-specification:Arimo;writing-mode:lr-tb;fill:#000;fill-opacity:1;fill-rule:nonzero;stroke:none"><tspan x="0 9.9960938 16.669922 20.003906 26.677734 30.673828 33.339844 40.013672" y="0">material</tspan></text><path d="M755.5 88h111c.597 0 1.17.114 1.722.343a4.459 4.459 0 0 1 1.46.975c.422.422.747.909.975 1.46.229.551.343 1.125.343 1.722v21c0 .597-.114 1.17-.343 1.722a4.457 4.457 0 0 1-.975 1.46 4.459 4.459 0 0 1-1.46.975 4.457 4.457 0 0 1-1.722.343h-111c-.597 0-1.17-.114-1.722-.343a4.457 4.457 0 0 1-1.46-.975 4.456 4.456 0 0 1-.976-1.46A4.456 4.456 0 0 1 751 113.5v-21c0-.597.114-1.17.342-1.722a4.456 4.456 0 0 1 .976-1.46 4.457 4.457 0 0 1 1.46-.975A4.458 4.458 0 0 1 755.5 88Z" style="fill:#dae8fc;fill-opacity:1;fill-rule:nonzero;stroke:none" transform="translate(1.499 1.499) scale(2.99733)"/><path d="M755.5 88h111c.597 0 1.17.114 1.722.343a4.459 4.459 0 0 1 1.46.975c.422.422.747.909.975 1.46.229.551.343 1.125.343 1.722v21c0 .597-.114 1.17-.343 1.722a4.457 4.457 0 0 1-.975 1.46 4.459 4.459 0 0 1-1.46.975 4.457 4.457 0 0 1-1.722.343h-111c-.597 0-1.17-.114-1.722-.343a4.457 4.457 0 0 1-1.46-.975 4.456 4.456 0 0 1-.976-1.46A4.456 4.456 0 0 1 751 113.5v-21c0-.597.114-1.17.342-1.722a4.456 4.456 0 0 1 .976-1.46 4.457 4.457 0 0 1 1.46-.975A4.458 4.458 0 0 1 755.5 88Z" style="fill:none;stroke:#6c8ebf;stroke-width:1;stroke-linecap:butt;stroke-linejoin:miter;stroke-miterlimit:10;stroke-dasharray:none;stroke-opacity:1" transform="translate(1.499 1.499) scale(2.99733)"/><text transform="translate(2353.839 320.714) scale(2.99733)" style="font-variant:normal;font-weight:400;font-size:12px;font-family:Arimo;-inkscape-font-specification:Arimo;writing-mode:lr-tb;fill:#000;fill-opacity:1;fill-rule:nonzero;stroke:none"><tspan x="0 3.3339844 10.007812 16.681641 23.355469 26.689453 30.023438 33.357422 36.023438 38.689453 45.363281" y="0">Input files</tspan></text><path d="M758.5 128h105a7.478 7.478 0 0 1 2.87.57 7.484 7.484 0 0 1 3.366 2.763A7.482 7.482 0 0 1 871 135.5v35a7.487 7.487 0 0 1-1.264 4.167 7.48 7.48 0 0 1-3.366 2.762 7.483 7.483 0 0 1-2.87.571h-105a7.478 7.478 0 0 1-2.87-.57 7.48 7.48 0 0 1-3.366-2.763A7.478 7.478 0 0 1 751 170.5v-35a7.48 7.48 0 0 1 1.264-4.167 7.485 7.485 0 0 1 3.366-2.762 7.486 7.486 0 0 1 2.87-.571Z" style="fill:#cdeb8b;fill-opacity:1;fill-rule:nonzero;stroke:none" transform="translate(1.499 1.499) scale(2.99733)"/><path d="M758.5 128h105a7.478 7.478 0 0 1 2.87.57 7.484 7.484 0 0 1 3.366 2.763A7.482 7.482 0 0 1 871 135.5v35a7.487 7.487 0 0 1-1.264 4.167 7.48 7.48 0 0 1-3.366 2.762 7.483 7.483 0 0 1-2.87.571h-105a7.478 7.478 0 0 1-2.87-.57 7.48 7.48 0 0 1-3.366-2.763A7.478 7.478 0 0 1 751 170.5v-35a7.48 7.48 0 0 1 1.264-4.167 7.485 7.485 0 0 1 3.366-2.762 7.486 7.486 0 0 1 2.87-.571Z" style="fill:none;stroke:#36393d;stroke-width:1;stroke-linecap:butt;stroke-linejoin:miter;stroke-miterlimit:10;stroke-dasharray:none;stroke-opacity:1" transform="translate(1.499 1.499) scale(2.99733)"/><text transform="translate(2277.875 449.6) scale(2.99733)" style="font-variant:normal;font-weight:400;font-size:12px;font-family:Arimo;-inkscape-font-specification:Arimo;writing-mode:lr-tb;fill:#000;fill-opacity:1;fill-rule:nonzero;stroke:none"><tspan x="0 8.0039062 14.677734 21.351562 30.017578 36.691406 40.025391 46.025391 52.699219 62.695312 69.369141 76.042969 79.376953 86.050781 92.724609 95.390625" y="0">Known/computable</tspan></text><text transform="translate(2333.888 494.559) scale(2.99733)" style="font-variant:normal;font-weight:400;font-size:12px;font-family:Arimo;-inkscape-font-specification:Arimo;writing-mode:lr-tb;fill:#000;fill-opacity:1;fill-rule:nonzero;stroke:none"><tspan x="0 6 12.673828 18.673828 22.007812 32.003906 38.677734 42.011719 48.685547 52.681641 55.347656 62.021484" y="0">key material</tspan></text><path d="M757 188h108a5.984 5.984 0 0 1 3.333 1.011 5.983 5.983 0 0 1 2.21 2.693A5.98 5.98 0 0 1 871 194v28a5.99 5.99 0 0 1-1.757 4.243 5.982 5.982 0 0 1-3.073 1.642A5.983 5.983 0 0 1 865 228H757a5.99 5.99 0 0 1-3.334-1.011 5.986 5.986 0 0 1-2.21-2.693A5.99 5.99 0 0 1 751 222v-28a5.983 5.983 0 0 1 1.011-3.333 5.978 5.978 0 0 1 1.655-1.656A5.986 5.986 0 0 1 757 188Z" style="fill:#60a917;fill-opacity:1;fill-rule:nonzero;stroke:none" transform="translate(1.499 1.499) scale(2.99733)"/><path d="M757 188h108a5.984 5.984 0 0 1 3.333 1.011 5.983 5.983 0 0 1 2.21 2.693A5.98 5.98 0 0 1 871 194v28a5.99 5.99 0 0 1-1.757 4.243 5.982 5.982 0 0 1-3.073 1.642A5.983 5.983 0 0 1 865 228H757a5.99 5.99 0 0 1-3.334-1.011 5.986 5.986 0 0 1-2.21-2.693A5.99 5.99 0 0 1 751 222v-28a5.983 5.983 0 0 1 1.011-3.333 5.978 5.978 0 0 1 1.655-1.656A5.986 5.986 0 0 1 757 188Z" style="fill:none;stroke:#2d7600;stroke-width:1;stroke-linecap:butt;stroke-linejoin:miter;stroke-miterlimit:10;stroke-dasharray:none;stroke-opacity:1" transform="translate(1.499 1.499) scale(2.99733)"/><text transform="translate(2281.856 635.433) scale(2.99733)" style="font-variant:normal;font-weight:400;font-size:12px;font-family:Arimo;-inkscape-font-specification:Arimo;writing-mode:lr-tb;fill:#fff;fill-opacity:1;fill-rule:nonzero;stroke:none"><tspan x="0 8.0039062 14.677734 21.351562 30.017578 36.691406 40.025391 42.691406 49.365234 52.699219 59.373047 63.369141 73.365234 80.039062 83.373047 86.039062 92.712891" y="0">Known information</tspan></text><path d="M120.5 269.5h40v85h-40z" style="fill:#fff2cc;fill-opacity:1;fill-rule:nonzero;stroke:none" transform="rotate(-90 422.624 935.167) scale(2.99733)"/><path d="M120.5 269.5h40v85h-40z" style="fill:none;stroke:#d6b656;stroke-width:1;stroke-linecap:butt;stroke-linejoin:miter;stroke-miterlimit:10;stroke-dasharray:none;stroke-opacity:1" transform="rotate(-90 422.624 935.167) scale(2.99733)"/><text transform="translate(332.141 905.193) scale(2.99733)" style="font-variant:normal;font-weight:400;font-size:12px;font-family:Arimo;-inkscape-font-specification:Arimo;writing-mode:lr-tb;fill:#000;fill-opacity:1;fill-rule:nonzero;stroke:none"><tspan x="0 8.0039062 10.669922 14.003906 17.337891 20.671875 27.345703 34.019531 40.693359 46.693359 53.367188" y="0">Bit Indexes</tspan></text><text transform="translate(306.149 947.155) scale(2.99733)" style="font-variant:normal;font-weight:400;font-size:12px;font-family:Arimo;-inkscape-font-specification:Arimo;writing-mode:lr-tb;fill:#000;fill-opacity:1;fill-rule:nonzero;stroke:none"><tspan x="0 3.9960938 10.669922 17.34375 23.34375 30.017578 36.691406 43.365234 50.039062 53.373047 60.046875 66.720703 70.054688" y="0">(encoded on 8</tspan></text><text transform="translate(387.17 992.115) scale(2.99733)" style="font-variant:normal;font-weight:400;font-size:12px;font-family:Arimo;-inkscape-font-specification:Arimo;writing-mode:lr-tb;fill:#000;fill-opacity:1;fill-rule:nonzero;stroke:none"><tspan x="0 6.6738281 9.3398438 12.673828 18.673828" y="0">bits)</tspan></text><path d="M246 302h120v20H246Z" style="fill:#fff2cc;fill-opacity:1;fill-rule:nonzero;stroke:none" transform="translate(1.499 1.499) scale(2.99733)"/><path d="M246 302h120v20H246Z" style="fill:none;stroke:#d6b656;stroke-width:1;stroke-linecap:butt;stroke-linejoin:miter;stroke-miterlimit:10;stroke-dasharray:none;stroke-opacity:1" transform="translate(1.499 1.499) scale(2.99733)"/><text transform="translate(752.235 947.155) scale(2.99733)" style="font-variant:normal;font-weight:400;font-size:12px;font-family:Arimo;-inkscape-font-specification:Arimo;writing-mode:lr-tb;fill:#000;fill-opacity:1;fill-rule:nonzero;stroke:none"><tspan x="0 8.0039062 10.669922 17.34375 24.017578 30.691406 36.691406 43.365234 49.365234 52.699219 56.695312 63.369141 66.035156 69.369141 75.369141 78.703125 82.699219 89.373047 96.046875 106.04297" y="0">AlphaTav (bitstream)</tspan></text><path d="M398.5 292h120v40h-120z" style="fill:#fff2cc;fill-opacity:1;fill-rule:nonzero;stroke:none" transform="translate(1.499 1.499) scale(2.99733)"/><path d="M398.5 292h120v40h-120z" style="fill:none;stroke:#d6b656;stroke-width:1;stroke-linecap:butt;stroke-linejoin:miter;stroke-miterlimit:10;stroke-dasharray:none;stroke-opacity:1" transform="translate(1.499 1.499) scale(2.99733)"/><text transform="translate(1241.83 926.174) scale(2.99733)" style="font-variant:normal;font-weight:400;font-size:12px;font-family:Arimo;-inkscape-font-specification:Arimo;writing-mode:lr-tb;fill:#000;fill-opacity:1;fill-rule:nonzero;stroke:none"><tspan x="0 8.0039062 10.669922 17.34375 23.34375 29.34375 32.677734 40.681641 43.347656 49.347656 56.021484 62.021484 65.355469 69.351562 76.025391 82.699219" y="0">Block Sizes (one</tspan></text><text transform="translate(1277.845 971.134) scale(2.99733)" style="font-variant:normal;font-weight:400;font-size:12px;font-family:Arimo;-inkscape-font-specification:Arimo;writing-mode:lr-tb;fill:#000;fill-opacity:1;fill-rule:nonzero;stroke:none"><tspan x="0 6.6738281 12.673828 19.347656 23.34375 29.34375 32.677734 39.351562 42.685547 49.359375 52.025391 55.359375 61.359375" y="0">every 4 bits)</tspan></text><path d="M479 398h20-16 13.63" style="fill:none;stroke:#000;stroke-width:1;stroke-linecap:butt;stroke-linejoin:miter;stroke-miterlimit:10;stroke-dasharray:none;stroke-opacity:1" transform="translate(1.499 1.499) scale(2.99733)"/><path d="m501.88 398-7 3.5 1.75-3.5-1.75-3.5z" style="fill:#000;fill-opacity:1;fill-rule:nonzero;stroke:none" transform="translate(1.499 1.499) scale(2.99733)"/><path d="m501.88 398-7 3.5 1.75-3.5-1.75-3.5z" style="fill:none;stroke:#000;stroke-width:1;stroke-linecap:butt;stroke-linejoin:miter;stroke-miterlimit:10;stroke-dasharray:none;stroke-opacity:1" transform="translate(1.499 1.499) scale(2.99733)"/><path d="M393.5 383h81c.597 0 1.17.114 1.722.343a4.457 4.457 0 0 1 1.46.975c.422.422.747.909.975 1.46.229.551.343 1.125.343 1.722v21c0 .597-.114 1.17-.343 1.722a4.457 4.457 0 0 1-.975 1.46 4.458 4.458 0 0 1-1.46.975 4.458 4.458 0 0 1-1.722.343h-81c-.597 0-1.17-.114-1.722-.343a4.457 4.457 0 0 1-1.46-.975 4.457 4.457 0 0 1-.975-1.46A4.456 4.456 0 0 1 389 408.5v-21c0-.597.114-1.17.343-1.722a4.457 4.457 0 0 1 .975-1.46 4.457 4.457 0 0 1 1.46-.975A4.457 4.457 0 0 1 393.5 383Z" style="fill:#647687;fill-opacity:1;fill-rule:nonzero;stroke:none" transform="translate(1.499 1.499) scale(2.99733)"/><path d="M393.5 383h81c.597 0 1.17.114 1.722.343a4.457 4.457 0 0 1 1.46.975c.422.422.747.909.975 1.46.229.551.343 1.125.343 1.722v21c0 .597-.114 1.17-.343 1.722a4.457 4.457 0 0 1-.975 1.46 4.458 4.458 0 0 1-1.46.975 4.458 4.458 0 0 1-1.722.343h-81c-.597 0-1.17-.114-1.722-.343a4.457 4.457 0 0 1-1.46-.975 4.457 4.457 0 0 1-.975-1.46A4.456 4.456 0 0 1 389 408.5v-21c0-.597.114-1.17.343-1.722a4.457 4.457 0 0 1 .975-1.46 4.457 4.457 0 0 1 1.46-.975A4.457 4.457 0 0 1 393.5 383Z" style="fill:none;stroke:#314354;stroke-width:1;stroke-linecap:butt;stroke-linejoin:miter;stroke-miterlimit:10;stroke-dasharray:none;stroke-opacity:1" transform="translate(1.499 1.499) scale(2.99733)"/><text transform="translate(1188.393 1189.939) scale(2.99733)" style="font-variant:normal;font-weight:400;font-size:12px;font-family:Arimo;-inkscape-font-specification:Arimo;writing-mode:lr-tb;fill:#fff;fill-opacity:1;fill-rule:nonzero;stroke:none"><tspan x="0 8.0039062 14.677734 20.677734 24.673828 30.673828 37.347656 40.681641 47.355469 54.029297 57.363281 64.693359 68.027344" y="0">Encrypted ZIP</tspan></text><text transform="translate(1279.344 1231.902) scale(2.99733)" style="font-variant:normal;font-weight:400;font-size:12px;font-family:Arimo;-inkscape-font-specification:Arimo;writing-mode:lr-tb;fill:#fff;fill-opacity:1;fill-rule:nonzero;stroke:none"><tspan x="0 3.3339844 6 8.6660156" y="0">file</tspan></text><path d="M366 398h20-17 13.63" style="fill:none;stroke:#000;stroke-width:1;stroke-linecap:butt;stroke-linejoin:miter;stroke-miterlimit:10;stroke-dasharray:none;stroke-opacity:1" transform="translate(1.499 1.499) scale(2.99733)"/><path d="m387.88 398-7 3.5 1.75-3.5-1.75-3.5z" style="fill:#000;fill-opacity:1;fill-rule:nonzero;stroke:none" transform="translate(1.499 1.499) scale(2.99733)"/><path d="m387.88 398-7 3.5 1.75-3.5-1.75-3.5z" style="fill:none;stroke:#000;stroke-width:1;stroke-linecap:butt;stroke-linejoin:miter;stroke-miterlimit:10;stroke-dasharray:none;stroke-opacity:1" transform="translate(1.499 1.499) scale(2.99733)"/><path d="M246 368h120v60H246Z" style="fill:#fff;fill-opacity:1;fill-rule:nonzero;stroke:none" transform="translate(1.499 1.499) scale(2.99733)"/><path d="M246 368h120v60H246Z" style="fill:none;stroke:#000;stroke-width:1;stroke-linecap:butt;stroke-linejoin:miter;stroke-miterlimit:10;stroke-dasharray:none;stroke-opacity:1" transform="translate(1.499 1.499) scale(2.99733)"/><text transform="translate(801.223 1183.944) scale(2.99733)" style="font-variant:normal;font-weight:400;font-size:12px;font-family:Arimo;-inkscape-font-specification:Arimo;writing-mode:lr-tb;fill:#000;fill-opacity:1;fill-rule:nonzero;stroke:none"><tspan x="0 7.3300781 11.326172 18 24.673828 34.669922 41.34375 48.017578 51.351562 58.025391 61.359375 64.025391 70.699219" y="0">Fragmentation</tspan></text><text transform="translate(849.227 1228.904) scale(2.99733)" style="font-variant:normal;font-weight:400;font-size:12px;font-family:Arimo;-inkscape-font-specification:Arimo;writing-mode:lr-tb;fill:#000;fill-opacity:1;fill-rule:nonzero;stroke:none"><tspan x="0 8.6660156 15.339844 21.339844 28.013672 34.6875 41.361328" y="0">Decoder</tspan></text><path d="M369 398h20-20 13.63" style="fill:none;stroke:#000;stroke-width:1;stroke-linecap:butt;stroke-linejoin:miter;stroke-miterlimit:10;stroke-dasharray:none;stroke-opacity:1" transform="translate(1.499 1.499) scale(2.99733)"/><path d="m387.88 398-7 3.5 1.75-3.5-1.75-3.5z" style="fill:#000;fill-opacity:1;fill-rule:nonzero;stroke:none" transform="translate(1.499 1.499) scale(2.99733)"/><path d="m387.88 398-7 3.5 1.75-3.5-1.75-3.5zM183 328h93v33.63" style="fill:none;stroke:#000;stroke-width:1;stroke-linecap:butt;stroke-linejoin:miter;stroke-miterlimit:10;stroke-dasharray:none;stroke-opacity:1" transform="translate(1.499 1.499) scale(2.99733)"/><path d="m276 366.88-3.5-7 3.5 1.75 3.5-1.75z" style="fill:#000;fill-opacity:1;fill-rule:nonzero;stroke:none" transform="translate(1.499 1.499) scale(2.99733)"/><path d="m276 366.88-3.5-7 3.5 1.75 3.5-1.75zM306 322v39.63" style="fill:none;stroke:#000;stroke-width:1;stroke-linecap:butt;stroke-linejoin:miter;stroke-miterlimit:10;stroke-dasharray:none;stroke-opacity:1" transform="translate(1.499 1.499) scale(2.99733)"/><path d="m306 366.88-3.5-7 3.5 1.75 3.5-1.75z" style="fill:#000;fill-opacity:1;fill-rule:nonzero;stroke:none" transform="translate(1.499 1.499) scale(2.99733)"/><path d="m306 366.88-3.5-7 3.5 1.75 3.5-1.75zM448 332v6H329.5l.02 23.63" style="fill:none;stroke:#000;stroke-width:1;stroke-linecap:butt;stroke-linejoin:miter;stroke-miterlimit:10;stroke-dasharray:none;stroke-opacity:1" transform="translate(1.499 1.499) scale(2.99733)"/><path d="m329.52 366.88-3.51-7 3.51 1.75 3.49-1.75z" style="fill:#000;fill-opacity:1;fill-rule:nonzero;stroke:none" transform="translate(1.499 1.499) scale(2.99733)"/><path d="m329.52 366.88-3.51-7 3.51 1.75 3.49-1.75zM536.5 438v-18.63" style="fill:none;stroke:#000;stroke-width:1;stroke-linecap:butt;stroke-linejoin:miter;stroke-miterlimit:10;stroke-dasharray:none;stroke-opacity:1" transform="translate(1.499 1.499) scale(2.99733)"/><path d="m536.5 414.12 3.5 7-3.5-1.75-3.5 1.75z" style="fill:#000;fill-opacity:1;fill-rule:nonzero;stroke:none" transform="translate(1.499 1.499) scale(2.99733)"/><path d="m536.5 414.12 3.5 7-3.5-1.75-3.5 1.75z" style="fill:none;stroke:#000;stroke-width:1;stroke-linecap:butt;stroke-linejoin:miter;stroke-miterlimit:10;stroke-dasharray:none;stroke-opacity:1" transform="translate(1.499 1.499) scale(2.99733)"/><path d="M496 438h81a2.994 2.994 0 0 1 2.771 1.852c.153.367.229.75.229 1.148v14c0 .398-.076.78-.228 1.148a2.972 2.972 0 0 1-.65.973 2.972 2.972 0 0 1-.974.65c-.368.153-.75.229-1.148.229h-81c-.398 0-.78-.076-1.148-.228a2.972 2.972 0 0 1-.973-.65 2.97 2.97 0 0 1-.65-.974A2.97 2.97 0 0 1 493 455v-14c0-.398.076-.78.228-1.148a2.97 2.97 0 0 1 .65-.973 2.97 2.97 0 0 1 .974-.65c.367-.153.75-.229 1.148-.229Z" style="fill:#cdeb8b;fill-opacity:1;fill-rule:nonzero;stroke:none" transform="translate(1.499 1.499) scale(2.99733)"/><path d="M496 438h81a2.994 2.994 0 0 1 2.771 1.852c.153.367.229.75.229 1.148v14c0 .398-.076.78-.228 1.148a2.972 2.972 0 0 1-.65.973 2.972 2.972 0 0 1-.974.65c-.368.153-.75.229-1.148.229h-81c-.398 0-.78-.076-1.148-.228a2.972 2.972 0 0 1-.973-.65 2.97 2.97 0 0 1-.65-.974A2.97 2.97 0 0 1 493 455v-14c0-.398.076-.78.228-1.148a2.97 2.97 0 0 1 .65-.973 2.97 2.97 0 0 1 .974-.65c.367-.153.75-.229 1.148-.229Z" style="fill:none;stroke:#36393d;stroke-width:1;stroke-linecap:butt;stroke-linejoin:miter;stroke-miterlimit:10;stroke-dasharray:none;stroke-opacity:1" transform="translate(1.499 1.499) scale(2.99733)"/><text transform="translate(1501.099 1354.792) scale(2.99733)" style="font-variant:normal;font-weight:400;font-size:12px;font-family:Arimo;-inkscape-font-specification:Arimo;writing-mode:lr-tb;fill:#000;fill-opacity:1;fill-rule:nonzero;stroke:none"><tspan x="0 7.3300781 9.9960938 16.669922 20.003906 26.677734 33.351562 39.351562 45.351562 54.017578 60.691406 64.6875" y="0">Zip password</tspan></text><path d="M776 605v-20h-22.5v-10.63" style="fill:none;stroke:#000;stroke-width:1;stroke-linecap:butt;stroke-linejoin:miter;stroke-miterlimit:10;stroke-dasharray:none;stroke-opacity:1" transform="translate(1.499 1.499) scale(2.99733)"/><path d="m753.5 569.12 3.5 7-3.5-1.75-3.5 1.75z" style="fill:#000;fill-opacity:1;fill-rule:nonzero;stroke:none" transform="translate(1.499 1.499) scale(2.99733)"/><path d="m753.5 569.12 3.5 7-3.5-1.75-3.5 1.75z" style="fill:none;stroke:#000;stroke-width:1;stroke-linecap:butt;stroke-linejoin:miter;stroke-miterlimit:10;stroke-dasharray:none;stroke-opacity:1" transform="translate(1.499 1.499) scale(2.99733)"/><path d="M725 605h102a8.976 8.976 0 0 1 3.444.685 8.98 8.98 0 0 1 4.04 3.315 8.98 8.98 0 0 1 1.516 5v42a8.978 8.978 0 0 1-1.517 5 8.981 8.981 0 0 1-4.039 3.315A8.98 8.98 0 0 1 827 665H725a8.986 8.986 0 0 1-5-1.517 8.978 8.978 0 0 1-2.483-2.483 8.972 8.972 0 0 1-1.344-3.244A8.974 8.974 0 0 1 716 656v-42a8.978 8.978 0 0 1 1.517-5 8.972 8.972 0 0 1 2.483-2.483 8.977 8.977 0 0 1 3.244-1.344A8.98 8.98 0 0 1 725 605Z" style="fill:#cdeb8b;fill-opacity:1;fill-rule:nonzero;stroke:none" transform="translate(1.499 1.499) scale(2.99733)"/><path d="M725 605h102a8.976 8.976 0 0 1 3.444.685 8.98 8.98 0 0 1 4.04 3.315 8.98 8.98 0 0 1 1.516 5v42a8.978 8.978 0 0 1-1.517 5 8.981 8.981 0 0 1-4.039 3.315A8.98 8.98 0 0 1 827 665H725a8.986 8.986 0 0 1-5-1.517 8.978 8.978 0 0 1-2.483-2.483 8.972 8.972 0 0 1-1.344-3.244A8.974 8.974 0 0 1 716 656v-42a8.978 8.978 0 0 1 1.517-5 8.972 8.972 0 0 1 2.483-2.483 8.977 8.977 0 0 1 3.244-1.344A8.98 8.98 0 0 1 725 605Z" style="fill:none;stroke:#36393d;stroke-width:1;stroke-linecap:butt;stroke-linejoin:miter;stroke-miterlimit:10;stroke-dasharray:none;stroke-opacity:1" transform="translate(1.499 1.499) scale(2.99733)"/><text transform="translate(2203.972 1873.33) scale(2.99733)" style="font-variant:normal;font-weight:400;font-size:12px;font-family:Arimo;-inkscape-font-specification:Arimo;writing-mode:lr-tb;fill:#000;fill-opacity:1;fill-rule:nonzero;stroke:none"><tspan x="0 8.0039062 14.677734 21.351562 24.017578 27.351562 30.017578 36.691406 43.365234 50.039062 52.705078 56.039062 58.705078 65.378906 68.712891 75.386719" y="0">Additional infos</tspan></text><text transform="translate(2153.018 1915.292) scale(2.99733)" style="font-variant:normal;font-weight:400;font-size:12px;font-family:Arimo;-inkscape-font-specification:Arimo;writing-mode:lr-tb;fill:#000;fill-opacity:1;fill-rule:nonzero;stroke:none"><tspan x="0 3.9960938 10.669922 17.34375 21.339844 28.013672 36.679688 43.353516 47.349609 54.023438 57.357422 61.353516 68.027344 74.027344 77.361328 81.357422 84.023438 90.023438 93.357422 96.023438 102.69727 109.37109" y="0">(hardware restrictions</tspan></text><text transform="translate(2252.96 1960.252) scale(2.99733)" style="font-variant:normal;font-weight:400;font-size:12px;font-family:Arimo;-inkscape-font-specification:Arimo;writing-mode:lr-tb;fill:#000;fill-opacity:1;fill-rule:nonzero;stroke:none"><tspan x="0 8.0039062 11.337891 18.011719 21.345703 28.019531 34.693359 38.689453 44.689453" y="0">&amp; others)</tspan></text><path d="M570 398h20-23 13.63" style="fill:none;stroke:#000;stroke-width:1;stroke-linecap:butt;stroke-linejoin:miter;stroke-miterlimit:10;stroke-dasharray:none;stroke-opacity:1" transform="translate(1.499 1.499) scale(2.99733)"/><path d="m585.88 398-7 3.5 1.75-3.5-1.75-3.5z" style="fill:#000;fill-opacity:1;fill-rule:nonzero;stroke:none" transform="translate(1.499 1.499) scale(2.99733)"/><path d="m585.88 398-7 3.5 1.75-3.5-1.75-3.5z" style="fill:none;stroke:#000;stroke-width:1;stroke-linecap:butt;stroke-linejoin:miter;stroke-miterlimit:10;stroke-dasharray:none;stroke-opacity:1" transform="translate(1.499 1.499) scale(2.99733)"/><path d="M503 383h67v30h-67z" style="fill:#fff;fill-opacity:1;fill-rule:nonzero;stroke:none" transform="translate(1.499 1.499) scale(2.99733)"/><path d="M503 383h67v30h-67z" style="fill:none;stroke:#000;stroke-width:1;stroke-linecap:butt;stroke-linejoin:miter;stroke-miterlimit:10;stroke-dasharray:none;stroke-opacity:1" transform="translate(1.499 1.499) scale(2.99733)"/><text transform="translate(1546.106 1183.944) scale(2.99733)" style="font-variant:normal;font-weight:400;font-size:12px;font-family:Arimo;-inkscape-font-specification:Arimo;writing-mode:lr-tb;fill:#000;fill-opacity:1;fill-rule:nonzero;stroke:none"><tspan x="0 8.6660156 15.339844 21.339844 25.335938 31.335938 38.009766" y="0">Decrypt</tspan></text><text transform="translate(1580.107 1228.904) scale(2.99733)" style="font-variant:normal;font-weight:400;font-size:12px;font-family:Arimo;-inkscape-font-specification:Arimo;writing-mode:lr-tb;fill:#000;fill-opacity:1;fill-rule:nonzero;stroke:none"><tspan x="0 7.3300781 10.664062" y="0">ZIP</tspan></text><path d="M591.5 383h81c.597 0 1.17.114 1.722.343a4.458 4.458 0 0 1 1.46.975c.422.422.747.909.975 1.46.229.551.343 1.125.343 1.722v21c0 .597-.114 1.17-.343 1.722a4.457 4.457 0 0 1-.975 1.46 4.458 4.458 0 0 1-1.46.975 4.458 4.458 0 0 1-1.722.343h-81c-.597 0-1.17-.114-1.722-.343a4.456 4.456 0 0 1-1.46-.975 4.456 4.456 0 0 1-.975-1.46A4.455 4.455 0 0 1 587 408.5v-21c0-.597.114-1.17.343-1.722a4.456 4.456 0 0 1 .975-1.46 4.456 4.456 0 0 1 1.46-.975A4.458 4.458 0 0 1 591.5 383Z" style="fill:#e1d5e7;fill-opacity:1;fill-rule:nonzero;stroke:none" transform="translate(1.499 1.499) scale(2.99733)"/><path d="M591.5 383h81c.597 0 1.17.114 1.722.343a4.458 4.458 0 0 1 1.46.975c.422.422.747.909.975 1.46.229.551.343 1.125.343 1.722v21c0 .597-.114 1.17-.343 1.722a4.457 4.457 0 0 1-.975 1.46 4.458 4.458 0 0 1-1.46.975 4.458 4.458 0 0 1-1.722.343h-81c-.597 0-1.17-.114-1.722-.343a4.456 4.456 0 0 1-1.46-.975 4.456 4.456 0 0 1-.975-1.46A4.455 4.455 0 0 1 587 408.5v-21c0-.597.114-1.17.343-1.722a4.456 4.456 0 0 1 .975-1.46 4.456 4.456 0 0 1 1.46-.975A4.458 4.458 0 0 1 591.5 383Z" style="fill:none;stroke:#9673a6;stroke-width:1;stroke-linecap:butt;stroke-linejoin:miter;stroke-miterlimit:10;stroke-dasharray:none;stroke-opacity:1" transform="translate(1.499 1.499) scale(2.99733)"/><text transform="translate(1780.88 1189.939) scale(2.99733)" style="font-variant:normal;font-weight:400;font-size:12px;font-family:Arimo;-inkscape-font-specification:Arimo;writing-mode:lr-tb;fill:#000;fill-opacity:1;fill-rule:nonzero;stroke:none"><tspan x="0 8.6660156 15.339844 21.339844 25.335938 31.335938 38.009766 41.34375 48.017578 54.691406 58.025391 65.355469 68.689453" y="0">Decrypted ZIP</tspan></text><text transform="translate(1872.861 1231.902) scale(2.99733)" style="font-variant:normal;font-weight:400;font-size:12px;font-family:Arimo;-inkscape-font-specification:Arimo;writing-mode:lr-tb;fill:#000;fill-opacity:1;fill-rule:nonzero;stroke:none"><tspan x="0 3.3339844 6 8.6660156" y="0">file</tspan></text><path d="M755.5 242h111c.597 0 1.17.114 1.722.343a4.459 4.459 0 0 1 1.46.975c.422.422.747.909.975 1.46.229.551.343 1.125.343 1.722v21c0 .597-.114 1.17-.343 1.722a4.457 4.457 0 0 1-.975 1.46 4.459 4.459 0 0 1-1.46.975 4.458 4.458 0 0 1-1.722.343h-111c-.597 0-1.17-.114-1.722-.343a4.457 4.457 0 0 1-1.46-.975 4.457 4.457 0 0 1-.976-1.46A4.456 4.456 0 0 1 751 267.5v-21c0-.597.114-1.17.342-1.722a4.456 4.456 0 0 1 .976-1.46 4.457 4.457 0 0 1 1.46-.975A4.458 4.458 0 0 1 755.5 242Z" style="fill:#e1d5e7;fill-opacity:1;fill-rule:nonzero;stroke:none" transform="translate(1.499 1.499) scale(2.99733)"/><path d="M755.5 242h111c.597 0 1.17.114 1.722.343a4.459 4.459 0 0 1 1.46.975c.422.422.747.909.975 1.46.229.551.343 1.125.343 1.722v21c0 .597-.114 1.17-.343 1.722a4.457 4.457 0 0 1-.975 1.46 4.459 4.459 0 0 1-1.46.975 4.458 4.458 0 0 1-1.722.343h-111c-.597 0-1.17-.114-1.722-.343a4.457 4.457 0 0 1-1.46-.975 4.457 4.457 0 0 1-.976-1.46A4.456 4.456 0 0 1 751 267.5v-21c0-.597.114-1.17.342-1.722a4.456 4.456 0 0 1 .976-1.46 4.457 4.457 0 0 1 1.46-.975A4.458 4.458 0 0 1 755.5 242Z" style="fill:none;stroke:#9673a6;stroke-width:1;stroke-linecap:butt;stroke-linejoin:miter;stroke-miterlimit:10;stroke-dasharray:none;stroke-opacity:1" transform="translate(1.499 1.499) scale(2.99733)"/><text transform="translate(2289.864 782.302) scale(2.99733)" style="font-variant:normal;font-weight:400;font-size:12px;font-family:Arimo;-inkscape-font-specification:Arimo;writing-mode:lr-tb;fill:#000;fill-opacity:1;fill-rule:nonzero;stroke:none"><tspan x="0 8.6660156 15.339844 21.339844 25.335938 31.335938 38.009766 41.34375 44.009766 50.683594 57.357422 60.691406 67.365234 74.039062 77.373047 84.046875 90.720703" y="0">Decryption output</tspan></text></g></svg>